<svg xmlns="http://www.w3.org/2000/svg" viewBox="0 0 750 500"><g id="freepik--Sign--inject-119"><rect x="282.96" y="75.24" width="212.06" height="115.66" style="fill:#ebebeb"></rect><path d="M487.93,182H290V82.92h198ZM291,181h196V83.92H291Z" style="fill:#263238"></path><path d="M307.25,121.22v39.43h26.91V120.91a1.34,1.34,0,0,0-1.34-1.34h-4.69V113H313.94v6.82l-5.38.11A1.33,1.33,0,0,0,307.25,121.22Z" style="fill:#263238"></path><rect x="318.52" y="107.61" width="4.31" height="5.34" style="fill:#263238"></rect><rect x="311.51" y="107.61" width="25.65" height="3" style="fill:#263238"></rect><path d="M350.57,128.47v-5.85H353v5.76c0,2,.87,2.8,2.33,2.8s2.33-.82,2.33-2.8v-5.76H360v5.85c0,3.07-1.76,4.77-4.73,4.77S350.57,131.54,350.57,128.47Z" style="fill:#263238"></path><path d="M361.6,132l.82-1.82a6.07,6.07,0,0,0,3.45,1.09c1.43,0,2-.47,2-1.12,0-2-6.07-.61-6.07-4.49,0-1.77,1.43-3.25,4.4-3.25a7,7,0,0,1,3.63.92l-.75,1.84a5.93,5.93,0,0,0-2.9-.82c-1.43,0-2,.54-2,1.19,0,1.93,6.07.6,6.07,4.44,0,1.74-1.44,3.23-4.43,3.23A7.41,7.41,0,0,1,361.6,132Z" style="fill:#263238"></path><path d="M380,131.12v1.94h-8.09V122.62h7.89v1.94h-5.49v2.27h4.85v1.88h-4.85v2.41Z" style="fill:#263238"></path><path d="M385.35,132l.82-1.82a6.07,6.07,0,0,0,3.45,1.09c1.43,0,2-.47,2-1.12,0-2-6.07-.61-6.07-4.49,0-1.77,1.43-3.25,4.4-3.25a7,7,0,0,1,3.63.92l-.75,1.84a5.92,5.92,0,0,0-2.89-.82c-1.44,0-2,.54-2,1.19,0,1.93,6.07.6,6.07,4.44,0,1.74-1.44,3.23-4.43,3.23A7.41,7.41,0,0,1,385.35,132Z" style="fill:#263238"></path><path d="M402.57,130.83h-4.85l-.93,2.23h-2.48L399,122.62h2.39L406,133.06h-2.54Zm-.76-1.84-1.66-4-1.66,4Z" style="fill:#263238"></path><path d="M416.7,122.62v10.44h-2l-5.21-6.34v6.34h-2.38V122.62h2l5.19,6.34v-6.34Z" style="fill:#263238"></path><path d="M419.17,122.62h2.42v10.44h-2.42Z" style="fill:#263238"></path><path d="M426.23,124.59h-3.35v-2H432v2h-3.34v8.47h-2.42Z" style="fill:#263238"></path><path d="M433.28,122.62h2.42v10.44h-2.42Z" style="fill:#263238"></path><path d="M446.64,131.1v2h-9.13V131.5l5.73-6.91h-5.62v-2h8.79v1.57l-5.71,6.91Z" style="fill:#263238"></path><path d="M456.28,131.12v1.94h-8.09V122.62h7.89v1.94h-5.49v2.27h4.85v1.88h-4.85v2.41Z" style="fill:#263238"></path><path d="M464.85,133.06l-2-2.91h-2.22v2.91H458.2V122.62h4.52c2.79,0,4.54,1.45,4.54,3.79a3.39,3.39,0,0,1-2.15,3.3l2.34,3.35Zm-2.26-8.47h-2v3.64h2c1.47,0,2.22-.69,2.22-1.82S464.06,124.59,462.59,124.59Z" style="fill:#263238"></path><path d="M362.3,147.75c0,1.6-1.21,2.52-3.57,2.52h-4.46v-9.34h4.19c2.15,0,3.35.91,3.35,2.42a2.21,2.21,0,0,1-1.26,2.08A2.25,2.25,0,0,1,362.3,147.75ZM355.6,142v3h2.74c1.36,0,2.13-.51,2.13-1.49s-.77-1.5-2.13-1.5Zm5.35,5.63c0-1.08-.8-1.56-2.28-1.56H355.6v3.11h3.07C360.15,149.19,361,148.73,361,147.64Z" style="fill:#263238"></path><path d="M371.16,149.11v1.16h-6.78v-9.34H371v1.16h-5.26V145h4.69v1.14h-4.69v3Z" style="fill:#263238"></path><path d="M374.66,142.09v3.26h4.69v1.15h-4.69v3.77h-1.33v-9.34h6.59v1.16Z" style="fill:#263238"></path><path d="M380.94,145.6a5,5,0,1,1,5,4.78A4.75,4.75,0,0,1,380.94,145.6Zm8.6,0a3.63,3.63,0,1,0-3.62,3.59A3.51,3.51,0,0,0,389.54,145.6Z" style="fill:#263238"></path><path d="M399.17,150.27l-2-2.87a5.35,5.35,0,0,1-.58,0h-2.31v2.84h-1.34v-9.34h3.65c2.43,0,3.9,1.23,3.9,3.26a3,3,0,0,1-2.06,2.95l2.22,3.13Zm0-6.08c0-1.34-.89-2.1-2.6-2.1h-2.27v4.21h2.27C398.24,146.3,399.13,145.52,399.13,144.19Z" style="fill:#263238"></path><path d="M409.41,149.11v1.16h-6.78v-9.34h6.6v1.16H404V145h4.68v1.14H404v3Z" style="fill:#263238"></path><path d="M422,149.11v1.16h-6.78v-9.34h6.59v1.16h-5.26V145h4.69v1.14h-4.69v3Z" style="fill:#263238"></path><path d="M432.16,140.93v9.34h-1.09l-5.61-7v7h-1.34v-9.34h1.1l5.61,7v-7Z" style="fill:#263238"></path><path d="M436.83,142.09h-3.21v-1.16h7.73v1.16h-3.2v8.18h-1.32Z" style="fill:#263238"></path><path d="M449.59,149.11v1.16h-6.78v-9.34h6.6v1.16h-5.26V145h4.68v1.14h-4.68v3Z" style="fill:#263238"></path><path d="M458,150.27l-2-2.87a5.35,5.35,0,0,1-.58,0H453.1v2.84h-1.34v-9.34h3.65c2.43,0,3.89,1.23,3.89,3.26a3,3,0,0,1-2.05,2.95l2.21,3.13Zm0-6.08c0-1.34-.9-2.1-2.6-2.1H453.1v4.21h2.27C457.07,146.3,458,145.52,458,144.19Z" style="fill:#263238"></path><path d="M289.94,79.39a2.67,2.67,0,1,1-2.67-2.67A2.66,2.66,0,0,1,289.94,79.39Z" style="fill:#e0e0e0"></path><path d="M289.94,79.39a5.5,5.5,0,0,1-.18-.63,2.62,2.62,0,0,0-1-1.34,2.45,2.45,0,1,0-2.33,4.25,2.52,2.52,0,0,0,2.33-.3,2.68,2.68,0,0,0,1-1.35,5.5,5.5,0,0,1,.18-.63s.09.24,0,.68a2.66,2.66,0,0,1-1,1.59,2.83,2.83,0,0,1-2.72.46,2.89,2.89,0,0,1,0-5.46,2.86,2.86,0,0,1,2.72.46,2.66,2.66,0,0,1,1,1.59C290,79.15,290,79.39,289.94,79.39Z" style="fill:#263238"></path><path d="M288.4,77.62c.07.14-.69.61-1.22,1.53s-.59,1.8-.74,1.81-.34-1,.29-2.07S288.37,77.49,288.4,77.62Z" style="fill:#263238"></path><path d="M288.74,80.37c-.14.07-.57-.72-1.48-1.24s-1.79-.57-1.8-.72,1-.37,2.07.27S288.88,80.35,288.74,80.37Z" style="fill:#263238"></path><path d="M290.09,187.07a2.67,2.67,0,1,1-2.67-2.67A2.67,2.67,0,0,1,290.09,187.07Z" style="fill:#e0e0e0"></path><path d="M290.09,187.07s-.06-.23-.18-.62a2.69,2.69,0,0,0-1-1.35,2.49,2.49,0,0,0-2.33-.31,2.44,2.44,0,0,0,0,4.56,2.49,2.49,0,0,0,2.33-.3,2.77,2.77,0,0,0,1-1.35c.12-.39.13-.63.18-.63s.09.24,0,.68a2.66,2.66,0,0,1-1,1.59,2.84,2.84,0,0,1-2.72.47,2.9,2.9,0,0,1,0-5.47,2.86,2.86,0,0,1,2.72.46,2.68,2.68,0,0,1,1,1.6C290.18,186.83,290.12,187.07,290.09,187.07Z" style="fill:#263238"></path><path d="M288.55,185.3c.07.14-.7.61-1.22,1.53s-.6,1.81-.75,1.81-.34-1,.3-2.07S288.51,185.17,288.55,185.3Z" style="fill:#263238"></path><path d="M288.88,188.06c-.14.06-.57-.73-1.47-1.25s-1.79-.56-1.8-.71,1-.38,2.06.26S289,188,288.88,188.06Z" style="fill:#263238"></path><path d="M494.41,79.39a2.67,2.67,0,1,1-2.67-2.67A2.67,2.67,0,0,1,494.41,79.39Z" style="fill:#e0e0e0"></path><path d="M494.41,79.39c-.05,0-.06-.24-.18-.63a2.71,2.71,0,0,0-1-1.34,2.49,2.49,0,0,0-2.33-.31,2.44,2.44,0,0,0,0,4.56,2.52,2.52,0,0,0,2.33-.3,2.77,2.77,0,0,0,1-1.35c.12-.39.13-.63.18-.63a1.25,1.25,0,0,1,0,.68,2.66,2.66,0,0,1-1,1.59,2.82,2.82,0,0,1-2.71.46,2.89,2.89,0,0,1,0-5.46,2.84,2.84,0,0,1,2.71.46,2.66,2.66,0,0,1,1,1.59A1.25,1.25,0,0,1,494.41,79.39Z" style="fill:#263238"></path><path d="M492.87,77.62c.06.14-.7.61-1.22,1.53s-.6,1.8-.75,1.81-.34-1,.3-2.07S492.83,77.49,492.87,77.62Z" style="fill:#263238"></path><path d="M493.2,80.37c-.14.07-.57-.72-1.48-1.24s-1.78-.57-1.79-.72,1-.37,2.06.27S493.34,80.35,493.2,80.37Z" style="fill:#263238"></path><path d="M494.55,187.07a2.67,2.67,0,1,1-2.67-2.67A2.66,2.66,0,0,1,494.55,187.07Z" style="fill:#e0e0e0"></path><path d="M494.55,187.07a4.89,4.89,0,0,1-.18-.62,2.6,2.6,0,0,0-1-1.35,2.5,2.5,0,0,0-2.33-.31,2.43,2.43,0,0,0,0,4.56,2.49,2.49,0,0,0,2.33-.3,2.68,2.68,0,0,0,1-1.35,5.5,5.5,0,0,1,.18-.63s.09.24,0,.68a2.63,2.63,0,0,1-1,1.59,2.83,2.83,0,0,1-2.72.47,2.9,2.9,0,0,1,0-5.47,2.86,2.86,0,0,1,2.72.46,2.65,2.65,0,0,1,1,1.6C494.64,186.83,494.58,187.07,494.55,187.07Z" style="fill:#263238"></path><path d="M493,185.3c.07.14-.69.61-1.22,1.53s-.59,1.81-.74,1.81-.34-1,.29-2.07S493,185.17,493,185.3Z" style="fill:#263238"></path><path d="M493.34,188.06c-.13.06-.57-.73-1.47-1.25s-1.79-.56-1.8-.71,1-.38,2.07.26S493.48,188,493.34,188.06Z" style="fill:#263238"></path></g><g id="freepik--hand-sanitizer--inject-119"><rect x="357.01" y="225.61" width="68.64" height="213.84" style="fill:#f5f5f5"></rect><rect x="365.86" y="322.63" width="52.22" height="80.29" rx="14.46" style="fill:#B8DAAA"></rect><rect x="380.64" y="312.01" width="24.26" height="11.07" style="fill:#B8DAAA"></rect><path d="M406.35,322.52c0,.15-6,.26-13.44.26s-13.45-.11-13.45-.26,6-.26,13.45-.26S406.35,322.38,406.35,322.52Z" style="fill:#263238"></path><path d="M383.87,311.91a54.25,54.25,0,0,1,0,10.61,54.25,54.25,0,0,1,0-10.61Z" style="fill:#263238"></path><path d="M387.31,311.91a54.25,54.25,0,0,1,0,10.61,54.25,54.25,0,0,1,0-10.61Z" style="fill:#263238"></path><path d="M390.75,311.91a54.25,54.25,0,0,1,0,10.61,54.25,54.25,0,0,1,0-10.61Z" style="fill:#263238"></path><path d="M394.19,311.91a54.25,54.25,0,0,1,0,10.61,54.25,54.25,0,0,1,0-10.61Z" style="fill:#263238"></path><path d="M397.63,311.91a54.25,54.25,0,0,1,0,10.61,54.25,54.25,0,0,1,0-10.61Z" style="fill:#263238"></path><path d="M401.07,311.91a54.25,54.25,0,0,1,0,10.61,54.25,54.25,0,0,1,0-10.61Z" style="fill:#263238"></path><rect x="377.48" y="337.87" width="30.58" height="50.7" style="fill:#fff"></rect><rect x="356.58" y="402.92" width="69.49" height="10.72" style="fill:#e0e0e0"></rect><rect x="357.01" y="353.57" width="68.64" height="9.21" style="fill:#e0e0e0"></rect><path d="M388.22,285.35S388,300.6,388,300.6h10.43V285.35Z" style="fill:#455a64"></path><rect x="391.79" y="287.77" width="3.23" height="0.82" style="fill:#263238"></rect><path d="M398.34,289.22a6.86,6.86,0,0,0-1.42.17c-.42.12-.93.34-1.52.5a5.52,5.52,0,0,1-2,.31c-1.47-.13-2.61-.76-3.48-.86s-1.44,0-1.45-.11a2.3,2.3,0,0,1,1.49-.26c1,0,2.16.61,3.49.71a6,6,0,0,0,1.85-.25c.59-.13,1.09-.31,1.57-.4C397.8,288.85,398.39,289.17,398.34,289.22Z" style="fill:#263238"></path><path d="M387,269.11a83,83,0,0,1-4.59-8,84.33,84.33,0,0,1-4.12-8.29,82.79,82.79,0,0,1,4.58,8A80.81,80.81,0,0,1,387,269.11Z" style="fill:#263238"></path><path d="M394.46,236.85c.15,0,.26,7.37.26,16.45s-.11,16.45-.26,16.45-.26-7.37-.26-16.45S394.32,236.85,394.46,236.85Z" style="fill:#263238"></path><path d="M407.63,253.53a75,75,0,0,1-3.77,8.22,80,80,0,0,1-4.23,8,78,78,0,0,1,3.77-8.23A83,83,0,0,1,407.63,253.53Z" style="fill:#263238"></path><circle cx="363.28" cy="231.6" r="3.12" style="fill:#e0e0e0"></circle><path d="M366.39,231.6a6.78,6.78,0,0,1-.19-.73,3.18,3.18,0,0,0-1.15-1.6,3,3,0,0,0-2.75-.37,2.89,2.89,0,0,0,0,5.41,3,3,0,0,0,2.75-.38,3.12,3.12,0,0,0,1.15-1.59c.14-.46.15-.74.19-.74s.09.28,0,.79a3.08,3.08,0,0,1-1.12,1.84,3.32,3.32,0,0,1-3.14.53,3.35,3.35,0,0,1,0-6.31,3.29,3.29,0,0,1,3.14.53,3.06,3.06,0,0,1,1.12,1.84C366.48,231.33,366.42,231.61,366.39,231.6Z" style="fill:#263238"></path><path d="M364.59,229.54c.08.13-.84.68-1.46,1.76a21.81,21.81,0,0,0-.83,2.13,2.62,2.62,0,0,1,.38-2.39C363.4,229.8,364.56,229.41,364.59,229.54Z" style="fill:#263238"></path><path d="M365,232.75c-.13.07-.63-.87-1.7-1.49s-2.11-.64-2.12-.8a2.53,2.53,0,0,1,2.39.35C364.78,231.54,365.12,232.73,365,232.75Z" style="fill:#263238"></path><path d="M365.11,433.35a3.12,3.12,0,1,1-3.12-3.11A3.12,3.12,0,0,1,365.11,433.35Z" style="fill:#e0e0e0"></path><path d="M365.11,433.35c-.05,0-.05-.27-.2-.73a3.15,3.15,0,0,0-1.14-1.6,3,3,0,0,0-2.76-.37,2.89,2.89,0,1,0,2.76,5,3.1,3.1,0,0,0,1.14-1.59c.15-.46.15-.74.2-.74a1.48,1.48,0,0,1,0,.79A3.13,3.13,0,0,1,364,436a3.34,3.34,0,1,1,0-5.25,3.11,3.11,0,0,1,1.12,1.84A1.43,1.43,0,0,1,365.11,433.35Z" style="fill:#263238"></path><path d="M363.31,431.29c.07.13-.84.68-1.46,1.76a19.16,19.16,0,0,0-.83,2.13,2.59,2.59,0,0,1,.38-2.39C362.12,431.55,363.28,431.15,363.31,431.29Z" style="fill:#263238"></path><path d="M363.7,434.5c-.14.07-.63-.87-1.7-1.49a15.06,15.06,0,0,0-2.12-.8,2.52,2.52,0,0,1,2.39.35C363.5,433.29,363.84,434.48,363.7,434.5Z" style="fill:#263238"></path><circle cx="419.53" cy="433.35" r="3.12" style="fill:#e0e0e0"></circle><path d="M422.65,433.35s-.06-.27-.2-.73a3.12,3.12,0,0,0-1.15-1.6,3,3,0,0,0-2.75-.37,2.88,2.88,0,0,0,0,5.4,2.94,2.94,0,0,0,2.76-.37,3.1,3.1,0,0,0,1.14-1.59c.14-.46.15-.74.2-.74a1.48,1.48,0,0,1,0,.79,3.13,3.13,0,0,1-1.12,1.84,3.34,3.34,0,1,1,0-5.25,3.11,3.11,0,0,1,1.12,1.84A1.43,1.43,0,0,1,422.65,433.35Z" style="fill:#263238"></path><path d="M420.85,431.29c.07.13-.84.68-1.46,1.76s-.68,2.13-.84,2.13a2.64,2.64,0,0,1,.39-2.39C419.66,431.55,420.82,431.15,420.85,431.29Z" style="fill:#263238"></path><path d="M421.24,434.5c-.14.07-.63-.87-1.7-1.49a15.58,15.58,0,0,0-2.12-.8,2.5,2.5,0,0,1,2.38.35C421,433.29,421.38,434.48,421.24,434.5Z" style="fill:#263238"></path><circle cx="419.48" cy="231.6" r="3.12" style="fill:#e0e0e0"></circle><path d="M422.59,231.6a6.78,6.78,0,0,1-.19-.73,3.18,3.18,0,0,0-1.15-1.6,3,3,0,0,0-2.75-.37,2.89,2.89,0,0,0,0,5.41,3,3,0,0,0,2.75-.38,3.12,3.12,0,0,0,1.15-1.59c.14-.46.15-.74.19-.74s.09.28,0,.79a3.08,3.08,0,0,1-1.12,1.84,3.32,3.32,0,0,1-3.14.53,3.35,3.35,0,0,1,0-6.31,3.29,3.29,0,0,1,3.14.53,3.06,3.06,0,0,1,1.12,1.84C422.68,231.33,422.62,231.61,422.59,231.6Z" style="fill:#263238"></path><path d="M420.79,229.54c.08.13-.84.68-1.46,1.76a21.81,21.81,0,0,0-.83,2.13,2.62,2.62,0,0,1,.38-2.39C419.6,229.8,420.76,229.41,420.79,229.54Z" style="fill:#263238"></path><path d="M421.18,232.75c-.13.07-.63-.87-1.7-1.49s-2.11-.64-2.12-.8a2.53,2.53,0,0,1,2.39.35C421,231.54,421.32,232.73,421.18,232.75Z" style="fill:#263238"></path></g><g id="freepik--character-2--inject-119"><path d="M645.22,261S685,272,694.77,274.4c10.76,2.61,22.33,19,22.17,36.84-.1,11.43-4,129.8-3.21,141,1,13.86-20.4,17.39-25.94,17.39s-49.5.19-49.5.19l-13.94-9.62Z" style="fill:#B8DAAA"></path><path d="M665.67,422.91a4.37,4.37,0,0,1-1.09-.23c-.7-.17-1.69-.46-2.92-.85a92.52,92.52,0,0,1-18.29-8.17c-1.11-.65-2-1.2-2.59-1.6a4.68,4.68,0,0,1-.9-.66,4.31,4.31,0,0,1,1,.49l2.66,1.45c2.25,1.22,5.39,2.83,9,4.43s6.86,2.85,9.27,3.71l2.86,1A4.51,4.51,0,0,1,665.67,422.91Z" style="fill:#263238"></path><path d="M653.25,275.93s.14.1.4.33l1.15,1c.5.46,1.07,1.07,1.77,1.77s1.44,1.57,2.21,2.6A52.1,52.1,0,0,1,668,301.22c2.32,8.93,2.7,20,2,32.09-.32,6.06-.77,12.41-1.08,19s-.53,13.41-.64,20.4a630.66,630.66,0,0,0,3.06,71.54c.47,4.56.92,8.68,1.35,12.3a31.6,31.6,0,0,1,.36,5.08,11.68,11.68,0,0,1-.89,4.19,6.33,6.33,0,0,1-2.12,2.67,6.63,6.63,0,0,1-1.2.67c-.4.13-.76.26-1.09.33l-.89.15-.64,0h-.53l.53-.06.64-.05.86-.17a6.05,6.05,0,0,0,4.25-3.66,11.64,11.64,0,0,0,.83-4.11,30.51,30.51,0,0,0-.4-5c-.46-3.61-.93-7.73-1.43-12.29a606.61,606.61,0,0,1-3.21-71.58c.11-7,.35-13.83.65-20.42s.78-12.95,1.12-19c.7-12.08.36-23.09-1.9-32a52.58,52.58,0,0,0-9-19.53c-.76-1-1.53-1.87-2.16-2.63s-1.25-1.33-1.73-1.8l-1.12-1.05C653.36,276.06,653.25,275.93,653.25,275.93Z" style="fill:#263238"></path><path d="M652.05,264.36l.56.08,1.65.26c.72.12,1.59.4,2.63.66.51.16,1.05.38,1.63.59l.9.34.91.44a31.61,31.61,0,0,1,8.35,5.74,40.88,40.88,0,0,1,8.09,10.69,49.71,49.71,0,0,1,5.13,15.42,98.18,98.18,0,0,1,1.17,18.65c-.12,6.58-.65,13.47-1,20.61s-.56,14.55-.69,22.13c-.51,30.35.42,57.82.93,77.7.28,9.93.51,18,.67,23.54.07,2.77.12,4.92.16,6.4,0,.72,0,1.27,0,1.67s0,.57,0,.57,0-.19-.05-.57,0-.95-.08-1.66c-.06-1.49-.15-3.64-.26-6.4-.19-5.58-.48-13.62-.83-23.54-.6-19.88-1.59-47.35-1.08-77.72.13-7.59.38-15,.7-22.14s.85-14,1-20.6a97.25,97.25,0,0,0-1.12-18.56,49.71,49.71,0,0,0-5-15.33,40.92,40.92,0,0,0-8-10.65,31.69,31.69,0,0,0-8.22-5.77l-.91-.45-.89-.34c-.57-.22-1.1-.44-1.61-.61-1-.28-1.89-.57-2.6-.71l-1.64-.31A5.54,5.54,0,0,1,652.05,264.36Z" style="fill:#263238"></path><path d="M714.73,384.85a5.63,5.63,0,0,1-1.29.12l-3.52.16c-3,.13-7.07.37-11.59.77s-8.6.92-11.54,1.32l-3.5.47a6.75,6.75,0,0,1-1.29.12,5.76,5.76,0,0,1,1.26-.32c.82-.17,2-.39,3.47-.64,2.94-.49,7-1.06,11.55-1.47s8.65-.58,11.63-.62c1.49,0,2.69,0,3.52,0A6.41,6.41,0,0,1,714.73,384.85Z" style="fill:#263238"></path><g style="opacity:0.30000000000000004"><path d="M673.31,453.33c-4.84-37.5-4.39-75.49-2.65-113.25.5-10.78,1.1-21.65-.54-32.31s-5.73-21.27-13.37-28.88-19.26-11.72-29.6-8.66l3.21,132.69c4.42,14.14,19.43,36.48,23.86,50.61,1.2,3.86,2.51,7.87,5.35,10.74s7.73,4.16,11,1.74C674.19,463.29,673.89,457.84,673.31,453.33Z"></path></g><path d="M685.63,272s.08.07.21.22l.58.66.94,1.1a18,18,0,0,1,1.21,1.55,49.19,49.19,0,0,1,6.16,10.9,68.62,68.62,0,0,1,4.5,18,157.26,157.26,0,0,1,.78,22.74c-.2,8.07-.84,15.74-1.3,22.71s-.8,13.26-.83,18.54.16,9.55.41,12.49c.09,1.48.25,2.62.31,3.39,0,.37,0,.66.07.88a1.82,1.82,0,0,1,0,.31,1.21,1.21,0,0,1-.06-.3c0-.23-.08-.51-.13-.88-.09-.77-.28-1.9-.4-3.38-.31-2.94-.57-7.22-.58-12.51s.26-11.59.72-18.57,1.06-14.64,1.26-22.7a162.46,162.46,0,0,0-.73-22.67,69.64,69.64,0,0,0-4.37-17.93,51.11,51.11,0,0,0-6-10.92,18.87,18.87,0,0,0-1.17-1.57l-.9-1.13-.54-.7C685.68,272.13,685.62,272.05,685.63,272Z" style="fill:#fff"></path><circle cx="699.1" cy="407.55" r="11.31" transform="translate(-102.44 296.28) rotate(-22.34)" style="fill:#263238"></circle><path d="M538.63,100.63c18.81-7.61,30.51-7.16,45.17-4.06l-.25-.22c-2.48-2.39-4.89-5-6.16-8.19s-1.22-7.12.94-9.81,6.67-3.42,9.09-1a11.39,11.39,0,0,1-3.16-8,8.4,8.4,0,0,1,4.42-7.17,6.7,6.7,0,0,1,8,1.59c-1.58-5.23,1.86-11,6.77-13.43s10.77-1.94,15.95-.22a13.26,13.26,0,0,1,6.29,3.77c1.57,1.91,2.14,4.83.75,6.89A16.9,16.9,0,0,1,655.3,77.17c2.76-.44,5.21,1.87,6.55,4.32a17.38,17.38,0,0,1-9.76,24.86c3.5,3.72,2.46,10.35-1.48,13.61s-9.84,3.39-14.5,1.27a8.38,8.38,0,0,1-13.61,8.08l-.34-.31a64.44,64.44,0,0,1,4,19.64c.29,9.67-2.26,19.18-4.79,28.52a43.22,43.22,0,0,1-3.79,10.35c-3,5.12-11.91,16.84-16.69,20.32l-90.56-65.25C512.19,119.89,533.34,102.77,538.63,100.63Z" style="fill:#263238"></path><path d="M509.26,149.42c.6-17.31,18.72-35.09,36-33.76l56.13,9,.08,9.3-.17,115.2h0s-2.63,28.49-34,27.26c-28.2-1.11-28.6-22.11-28.6-22.12L538.6,231s-23.91-3.62-28.08-29.11C508.18,187.58,508.6,168.65,509.26,149.42Z" style="fill:#bc857a"></path><path d="M519.35,170.56a3.68,3.68,0,0,0,3.66,3.62,3.53,3.53,0,0,0,3.71-3.44,3.68,3.68,0,0,0-3.66-3.62A3.52,3.52,0,0,0,519.35,170.56Z" style="fill:#263238"></path><path d="M515.52,161.57c.47.47,3.21-1.68,7.19-1.79s6.94,1.81,7.36,1.31c.2-.22-.29-1.08-1.58-2a10.21,10.21,0,0,0-5.91-1.64,9.84,9.84,0,0,0-5.71,2C515.68,160.48,515.29,161.36,515.52,161.57Z" style="fill:#263238"></path><path d="M553.75,170.47a3.68,3.68,0,0,0,3.66,3.62,3.52,3.52,0,0,0,3.71-3.44,3.68,3.68,0,0,0-3.66-3.62A3.52,3.52,0,0,0,553.75,170.47Z" style="fill:#263238"></path><path d="M553.79,161.11c.47.47,3.21-1.68,7.19-1.78s6.94,1.8,7.36,1.3c.2-.22-.29-1.07-1.59-2a10.07,10.07,0,0,0-5.9-1.64,9.7,9.7,0,0,0-5.71,2C554,160,553.56,160.91,553.79,161.11Z" style="fill:#263238"></path><path d="M538.73,231.16A73.23,73.23,0,0,0,577,219.77s-9.43,20.23-38.33,18.35Z" style="fill:#8c5249"></path><path d="M552.91,189.85c-.65,0-.54,4.29-4.14,7.46s-8.21,2.82-8.23,3.43c0,.27,1.05.81,3,.8a10.79,10.79,0,0,0,6.88-2.61,9.44,9.44,0,0,0,3.19-6.25C553.71,190.87,553.2,189.81,552.91,189.85Z" style="fill:#263238"></path><path d="M552.08,147.66c.39,1.1,4,.47,8.27.92s7.77,1.66,8.3.65c.24-.48-.39-1.5-1.81-2.53a12.8,12.8,0,0,0-6.2-2.23,12.51,12.51,0,0,0-6.43,1C552.67,146.25,551.91,147.14,552.08,147.66Z" style="fill:#263238"></path><path d="M513.92,149.53c.85.91,4-.15,7.9-.3s7.16.42,7.89-.58c.31-.48-.23-1.4-1.68-2.24a12.15,12.15,0,0,0-6.47-1.35,11.89,11.89,0,0,0-6.26,2.06C514,148.12,513.54,149.09,513.92,149.53Z" style="fill:#263238"></path><path d="M611.27,116.67c-1.64-4-27-13.43-27-13.43s-35.75-4.8-48.44,1.16c-20.36,9.56-25.16,37.31-25.16,37.31s12.83-24.29,19.47-19.91,10.79,8.87,15.61,6.46,14.12-8.78,25.62-5.14,12.83,18.1,12.67,34.36c-.06,6,.62,31.57,8.63,27.63,10.18-5,8.82,22.28,8.82,22.28A84.59,84.59,0,0,0,611.9,197a30.87,30.87,0,0,0,7.1-21.29l-.93-19.26S612.9,120.64,611.27,116.67Z" style="fill:#263238"></path><path d="M543,186.76c0-.19-2.47-.34-6.46-.44-1,0-2-.1-2.2-.66s0-1.54.42-2.57c.74-2.13,1.51-4.36,2.33-6.7,3.21-9.53,5.45-17.34,5-17.44s-3.43,7.54-6.64,17.08l-2.2,6.73c-.29,1-.83,2.14-.2,3.37a2.51,2.51,0,0,0,1.77,1.1,8.63,8.63,0,0,0,1.72.06C540.5,187.14,543,187,543,186.76Z" style="fill:#263238"></path><path d="M591.88,166.4c.44-.18,17.63-4.84,16.73,12.59s-18.22,12.93-18.22,12.43S591.88,166.4,591.88,166.4Z" style="fill:#bc857a"></path><path d="M596.05,185.09c.08-.05.3.23.8.49a3,3,0,0,0,2.26.16c1.88-.58,3.58-3.42,3.83-6.56a10.1,10.1,0,0,0-.62-4.39,3.55,3.55,0,0,0-2.17-2.45,1.54,1.54,0,0,0-1.83.74c-.26.48-.17.83-.26.86s-.36-.31-.18-1a1.9,1.9,0,0,1,.74-1,2.29,2.29,0,0,1,1.7-.36,4.25,4.25,0,0,1,3,2.87,10.33,10.33,0,0,1,.8,4.91c-.29,3.51-2.26,6.7-4.82,7.3a3.27,3.27,0,0,1-2.75-.61C596.06,185.51,596,185.12,596.05,185.09Z" style="fill:#8c5249"></path><path d="M605.28,188.66a2.76,2.76,0,0,1,.55.9,7.33,7.33,0,0,1,.68,2.82,5.91,5.91,0,0,1-1.35,4.08,5.47,5.47,0,0,1-2.1,1.53,4.42,4.42,0,0,1-2.79.23,5.25,5.25,0,0,1-3.65-3.73,5.75,5.75,0,0,1,.56-4.26,6.87,6.87,0,0,1,1.89-2.2,2.57,2.57,0,0,1,.91-.54,9.14,9.14,0,0,1-.78.69,7.44,7.44,0,0,0-1.69,2.22,5.45,5.45,0,0,0-.43,4,4.88,4.88,0,0,0,3.31,3.36,4.55,4.55,0,0,0,4.41-1.58,5.6,5.6,0,0,0,1.34-3.76,7.88,7.88,0,0,0-.5-2.74A6.51,6.51,0,0,1,605.28,188.66Z" style="fill:#e0e0e0"></path><path d="M621.76,129.06s-.11-.15-.27-.47-.39-.82-.66-1.38-.62-1.33-1.09-2.15-.93-1.79-1.58-2.78c-.31-.51-.64-1-1-1.58s-.76-1.08-1.15-1.66c-.78-1.15-1.74-2.29-2.72-3.52a59.05,59.05,0,0,0-7.24-7.13,59.66,59.66,0,0,0-8.44-5.67c-1.39-.72-2.7-1.43-4-2-.64-.27-1.25-.57-1.85-.8l-1.74-.64c-1.11-.45-2.15-.71-3-1s-1.69-.48-2.33-.63l-1.49-.37a2.34,2.34,0,0,1-.51-.17,1.76,1.76,0,0,1,.53.06l1.51.28a21.24,21.24,0,0,1,2.36.55c.92.26,2,.51,3.09.93l1.77.62c.61.22,1.22.51,1.87.78,1.31.51,2.64,1.21,4.05,1.92A58.35,58.35,0,0,1,606.4,108a57.29,57.29,0,0,1,7.28,7.24c1,1.24,1.93,2.4,2.7,3.58.39.58.8,1.12,1.14,1.68l1,1.61c.63,1,1.08,2,1.52,2.83a21.61,21.61,0,0,1,1,2.21c.23.57.42,1,.58,1.42A3.84,3.84,0,0,1,621.76,129.06Z" style="fill:#B8DAAA"></path><path d="M508.74,189.85S524.6,177.23,536,178.23s42.19,7.58,42.19,7.58l14.61,12.28s-9.15,35.33-54.93,34.23C504.42,231.52,508.74,189.85,508.74,189.85Z" style="fill:#455a64"></path><path d="M536.86,229.22a2.54,2.54,0,0,1-.23-.45l-.57-1.32c-.25-.57-.54-1.28-.83-2.11s-.66-1.78-1-2.85a71.19,71.19,0,0,1-2-7.6,82.12,82.12,0,0,1-1.28-9.53,79.1,79.1,0,0,1,0-9.61,71.49,71.49,0,0,1,.91-7.79c.17-1.11.4-2.09.58-3s.37-1.61.54-2.21.28-1,.38-1.39a1.64,1.64,0,0,1,.17-.47,1.83,1.83,0,0,1-.07.5c-.08.38-.17.84-.29,1.4s-.3,1.36-.44,2.23-.36,1.85-.5,3c-.35,2.19-.63,4.83-.81,7.76a87.66,87.66,0,0,0,.07,9.55,86.64,86.64,0,0,0,1.23,9.47c.57,2.88,1.2,5.45,1.85,7.58.29,1.07.63,2,.9,2.86s.52,1.56.74,2.14l.48,1.35A1.8,1.8,0,0,1,536.86,229.22Z" style="fill:#263238"></path><path d="M591.47,166.46c.11.08-2.82,4.58-6.55,10s-6.86,9.84-7,9.75,2.81-4.57,6.55-10S591.35,166.38,591.47,166.46Z" style="fill:#455a64"></path><path d="M602.8,190.36a41.18,41.18,0,0,1-5.23,4A43.48,43.48,0,0,1,592,198a40.88,40.88,0,0,1,5.24-4A43,43,0,0,1,602.8,190.36Z" style="fill:#455a64"></path><g style="opacity:0.30000000000000004"><path d="M557.55,192.23a3.78,3.78,0,0,0-4.87-1,4.68,4.68,0,0,0-2.19,4.4,8.11,8.11,0,0,0-1.41-2.39,4.24,4.24,0,0,0-4.38-1.43c-2.12.75-2.8,3.63-1.92,5.7s2.82,3.46,4.73,4.64,4,2.31,5.26,4.14a24.32,24.32,0,0,0,5-9.18C558.21,195.47,558.47,193.62,557.55,192.23Z"></path></g><g style="opacity:0.30000000000000004"><path d="M571.6,203.63a2.37,2.37,0,0,0-2.51-1.84,2.93,2.93,0,0,0-2.38,2,5,5,0,0,0-.19-1.73,2.62,2.62,0,0,0-2.13-1.93c-1.4-.12-2.53,1.34-2.56,2.75a6.89,6.89,0,0,0,1.51,3.86,10.76,10.76,0,0,1,1.93,3.72,15.17,15.17,0,0,0,5.2-4A3.7,3.7,0,0,0,571.6,203.63Z"></path></g><path d="M536,247.55s-17.47-2-22.35,3.61-24.16,46.41-24.16,46.41,14.44,26,17,26.5S536,247.55,536,247.55Z" style="fill:#455a64"></path><path d="M540.54,245.69c-2.78-5.17-7-4.15-13.53-1.54-4.74,1.89-8.69,7-11,11.59a135.79,135.79,0,0,0-15,49.6c-.93,9.32-.62,13.17-1,20.08s-1.64,31.6,3.1,36.65c6.33-11.28,12.51-39.61,17.69-51.46,7.54-17.25,12.52-35.48,17.48-53.64.74-2.68-1.1-5.07-.37-7.75" style="fill:#B8DAAA"></path><path d="M639.88,407.55l-13.62-53.77-1.91-109.73-22.86-4.84s-17,9.32-31.92,9.84-31.11-3.88-31.11-3.88S529.69,253,524.57,263c-7.88,15.54-15.13,40.73-18.88,59.15-6.18,30.4-5.67,147.47-5.67,147.47H661.59Z" style="fill:#455a64"></path><path d="M643.89,250.81s-1.29-7.95-7.24-10c-3.32-1.16-9.41-1.5-14.15-1.56a18.55,18.55,0,0,0-12.33,4.46c-6.95,5.94-18,17.33-19.4,30.46-3.35,31.67,1.79,91,3,94.36.8,2.26,7.12,32.86,30.6,57.5,15.53,16.29,49.12,28.67,49.12,28.67l-2.82-31.76c-25.8-5.08-43.25-26.81-58.91-58.5,0,0,1.48-82.88,3.9-94.26C617.6,261,630.62,241.63,643.89,250.81Z" style="fill:#B8DAAA"></path><path d="M633.25,246.78s14.66-.1,18.32,20.15c4.16,23.07,13.27,65.47,13.27,65.47l-53.11,7.79s.92-58.61,3.66-71.43S633.25,246.78,633.25,246.78Z" style="fill:#455a64"></path><g style="opacity:0.30000000000000004"><path d="M635.8,406c-.74-3.5-4.67-5.14-8.07-6.22-37.87-12.05-76.45-24.22-116.19-24.47-2.73,0-5.62.07-7.94,1.53s-3.67,4.78-2.1,7l9.4,2.68,22,8.66c7.29,5,13.73,11.3,21.42,15.7,16.89,9.66,37.52,9.14,57,8.36,7.77-.32,16.34-1,21.83-6.47C634.93,411,636.33,408.49,635.8,406Z"></path></g><path d="M641.34,244.54a1.34,1.34,0,0,1-.35-.13l-1-.42a14.59,14.59,0,0,0-1.67-.53,8.11,8.11,0,0,0-1.09-.21,7.18,7.18,0,0,0-1.26-.12,13,13,0,0,0-6.29,1.44,26.11,26.11,0,0,0-6.9,5.18,46.73,46.73,0,0,0-6.6,8.17,42.69,42.69,0,0,0-4.75,11c-2.33,8.22-2.75,17.68-2.74,27.51,0,19.72.11,37.56.14,50.51,0,6.44,0,11.67,0,15.31,0,1.78,0,3.18,0,4.16,0,.46,0,.81,0,1.08a.19.19,0,1,1-.06,0c0-.27,0-.62,0-1.08,0-1,0-2.38-.06-4.16,0-3.64-.09-8.87-.16-15.31-.07-13-.18-30.79-.29-50.51,0-9.84.42-19.36,2.8-27.64a43.18,43.18,0,0,1,4.84-11.14,46.76,46.76,0,0,1,6.71-8.2,26.2,26.2,0,0,1,7-5.18,13.06,13.06,0,0,1,6.43-1.38,6.31,6.31,0,0,1,1.27.15,6.78,6.78,0,0,1,1.11.23,13.7,13.7,0,0,1,1.67.58l1,.48Z" style="fill:#263238"></path><path d="M568.07,344a9.15,9.15,0,0,1-1.43-.67c-.91-.45-2.19-1.16-3.74-2.11A71.24,71.24,0,0,1,542.25,322c-1-1.48-1.86-2.7-2.38-3.58a8.6,8.6,0,0,1-.76-1.37,9,9,0,0,1,.93,1.26c.57.84,1.42,2,2.51,3.47A80.47,80.47,0,0,0,552,332.26a81.76,81.76,0,0,0,11.12,8.64c1.52,1,2.77,1.74,3.65,2.25A10,10,0,0,1,568.07,344Z" style="fill:#263238"></path><g style="opacity:0.30000000000000004"><path d="M540,318.5h0c-.32,7.45,4.39,13.59,9.94,18.57s13.59,8.76,21,7.64C562.27,342.68,543.53,326.37,540,318.5Z"></path></g><path d="M487.84,338.7l-30.26,28.58s28.33,12.71,37.22,6.39,6.85-14.2,6.85-14.2c-2.88-9.24-2.1-27.07-1.35-43.45l-7.39-12.36" style="fill:#bc857a"></path><path d="M466.44,310.3s-3.72-3.72-6.93-2.44-3.59,3.08-2.95,6,2.56,5.9,1.41,7.44a8.47,8.47,0,0,1-3.72,2.31s-4.88.69-5.14,3.94a15,15,0,0,0,0,4.14s-4,1-4.36,3.73a20.27,20.27,0,0,0,0,5.26,13.18,13.18,0,0,0-2.18,6.8,11.91,11.91,0,0,0,1.79,6.29s8.73,13,13.22,13.47,21.82-1.79,23.36-9.24,13-33.11,12.71-35.67a24.93,24.93,0,0,0-1.8-6s-1.16-3.59-4.24-3.2a5.15,5.15,0,0,0-4.1,2.69l-14.63-.77Z" style="fill:#bc857a"></path><path d="M457.17,316a3.42,3.42,0,0,1,.79.92,27.39,27.39,0,0,1,1.65,2.86A41.3,41.3,0,0,0,462,324a5,5,0,0,0,2.15,1.65,7,7,0,0,0,2.9.6,5.36,5.36,0,0,0,2.81-.75,3.2,3.2,0,0,0,1.42-2.18,7.29,7.29,0,0,0-1-4.53c-.65-1.22-1.22-2.2-1.51-2.93a3.31,3.31,0,0,1-.34-1.17s.18.4.53,1.08.94,1.63,1.64,2.85a7.37,7.37,0,0,1,1.16,4.78,3.64,3.64,0,0,1-1.61,2.53,5.87,5.87,0,0,1-3.08.84,7.5,7.5,0,0,1-3.11-.65,5.44,5.44,0,0,1-2.34-1.84,35.31,35.31,0,0,1-2.29-4.34c-.6-1.25-1.1-2.26-1.49-2.92A9.68,9.68,0,0,1,457.17,316Z" style="fill:#8c5249"></path><path d="M450.65,332.58l.54-.09a6,6,0,0,1,1.56.13,12.23,12.23,0,0,1,5.14,2.51c2.08,1.47,3,4.42,5.14,6.69a7.18,7.18,0,0,0,4.18,2.23,6.48,6.48,0,0,0,2.52-.09,2.49,2.49,0,0,0,1.86-1.46,3.68,3.68,0,0,0-.25-2.47c-.32-.81-.7-1.63-1-2.42-.7-1.58-1.41-3.08-2.18-4.47a19.31,19.31,0,0,0-2.48-3.69,20.35,20.35,0,0,0-3-2.54,19.45,19.45,0,0,0-5-2.63,13.2,13.2,0,0,0-2-.45,2.33,2.33,0,0,1,.55,0,8.45,8.45,0,0,1,1.54.27,18.74,18.74,0,0,1,5.13,2.53,20.17,20.17,0,0,1,3.06,2.54,19.8,19.8,0,0,1,2.59,3.76c.79,1.39,1.51,2.91,2.22,4.5.35.79.72,1.58,1.06,2.43a4.08,4.08,0,0,1,.26,2.83,3,3,0,0,1-2.22,1.79,7,7,0,0,1-2.73.09,7.57,7.57,0,0,1-4.45-2.4c-2.19-2.42-3.06-5.32-5-6.74a12.82,12.82,0,0,0-5-2.6A9.66,9.66,0,0,0,450.65,332.58Z" style="fill:#8c5249"></path><path d="M447.57,342.05s.14,0,.41,0a6.31,6.31,0,0,1,1.16.19,11.54,11.54,0,0,1,3.86,1.85,17.8,17.8,0,0,1,4.48,4.52,16.68,16.68,0,0,0,2.29,2.87,7.94,7.94,0,0,0,3.39,1.81,7,7,0,0,0,3.8,0,3.43,3.43,0,0,0,1.48-.94,1.86,1.86,0,0,0,.4-.71,1.26,1.26,0,0,0,.06-.38.93.93,0,0,1,0-.13c0-.05-.06-.12-.08-.18a27.27,27.27,0,0,0-1.79-2.82l-1.69-2.41-2.48-3.46a7.94,7.94,0,0,1-.86-1.31,8.81,8.81,0,0,1,1,1.19c.63.78,1.53,1.93,2.62,3.37.54.71,1.13,1.51,1.74,2.37a24.42,24.42,0,0,1,1.87,2.86,2.35,2.35,0,0,1,.1.22,1.77,1.77,0,0,1,.08.31,2.17,2.17,0,0,1-.08.51,2.36,2.36,0,0,1-.49.89,3.83,3.83,0,0,1-1.69,1.1,7.41,7.41,0,0,1-4.1.06,8.28,8.28,0,0,1-3.61-1.94,17,17,0,0,1-2.34-3,17.9,17.9,0,0,0-4.29-4.5,12.69,12.69,0,0,0-3.71-2C448.13,342.13,447.57,342.1,447.57,342.05Z" style="fill:#8c5249"></path><path d="M470,278.35l.52,4s8.76,13.35,13.62,27.34,7,21.43,7,25.41l-23.1,4.11s-1.41-23.74-1.41-33.5,1.41-23.61,1.41-23.61l.32-3.72Z" style="fill:#B8DAAA"></path><path d="M491.52,336c0-.09,0-.16,0-.24a.28.28,0,0,0,0-.09Z" style="fill:#e0e0e0"></path><path d="M471,333.28a13.31,13.31,0,0,1,5.25-3.25,14.19,14.19,0,0,1,9.78-.18,9.1,9.1,0,0,1,5.42,7.29c.59,3.3-.45,4.68-2.58,7.3a11.74,11.74,0,0,1-17.92.37c-1.45-1.64-2.92-3.44-2.88-5.63S469.6,334.78,471,333.28Z" style="fill:#e0e0e0"></path><path d="M491.52,339.05c.92-4.82-.53-10.49-3.28-12.47a13.63,13.63,0,0,0-9.7-2.07,14.62,14.62,0,0,0-6.93,2.69,10,10,0,0,0-3.9,6.21l.4,5.77Z" style="fill:#e0e0e0"></path><path d="M491.52,340.3c-.07,0,0-.51,0-1.43a9.65,9.65,0,0,0-1-3.69,10.74,10.74,0,0,0-3.7-4.22,11,11,0,0,0-6.61-1.72,14.06,14.06,0,0,0-6.59,2,11.6,11.6,0,0,0-4,4,9.36,9.36,0,0,0-1.3,3.6c-.11.91,0,1.42-.1,1.42a1.34,1.34,0,0,1-.07-.37,4.32,4.32,0,0,1,0-1.07,9,9,0,0,1,1.18-3.76,11.65,11.65,0,0,1,4-4.24,14.24,14.24,0,0,1,6.82-2.15,11.14,11.14,0,0,1,6.89,1.84,10.78,10.78,0,0,1,3.77,4.46,9.19,9.19,0,0,1,.87,3.85,5.75,5.75,0,0,1-.08,1.07A1.52,1.52,0,0,1,491.52,340.3Z" style="fill:#263238"></path><path d="M479.78,339a2.6,2.6,0,0,1,2.38-.08,1.58,1.58,0,0,1,.79.72,1,1,0,0,1,0,1,1.49,1.49,0,0,1-.76.51,6.27,6.27,0,0,1-2.27.39,1.47,1.47,0,0,1-.89-.25,1.19,1.19,0,0,1-.22-1.43,2.2,2.2,0,0,1,1-.89" style="fill:#455a64"></path><path d="M479.46,343.67A13.23,13.23,0,0,0,476.8,350a1.88,1.88,0,0,0,.41,1.64,1.77,1.77,0,0,0,1.15.31,2.41,2.41,0,0,0,1.35-.31,2.71,2.71,0,0,0,.79-2.47,20.91,20.91,0,0,0-1-5.48" style="fill:#455a64"></path><path d="M481.94,342.28a9,9,0,0,0,.12,4.61c.13.37.33.78.71.88a1.16,1.16,0,0,0,.79-.12,1.56,1.56,0,0,0,.74-.57,1.81,1.81,0,0,0-.2-1.73,14.29,14.29,0,0,0-2.16-3.07" style="fill:#455a64"></path><path d="M489.55,355.07s.43-.5,1.07-1.48a17.7,17.7,0,0,0,2-4.53c.59-2,1.16-4.46,1.81-7.17a59.83,59.83,0,0,0,1.48-8.9,28.81,28.81,0,0,0-.63-8.94,20.9,20.9,0,0,0-2.91-6.71c-.54-.91-1-1.76-1.46-2.42a4.16,4.16,0,0,0-1.53-1.39,5.49,5.49,0,0,0-1.75-.4,1.44,1.44,0,0,1,.48-.05,3.3,3.3,0,0,1,1.35.26,4.28,4.28,0,0,1,1.69,1.4,28.34,28.34,0,0,1,1.53,2.41,20.9,20.9,0,0,1,3.07,6.78,28.59,28.59,0,0,1,.68,9.09,56.06,56.06,0,0,1-1.54,9c-.67,2.71-1.28,5.15-1.92,7.17a16.6,16.6,0,0,1-2.16,4.54,9.72,9.72,0,0,1-.88,1A1.84,1.84,0,0,1,489.55,355.07Z" style="fill:#8c5249"></path><path d="M444.27,348.44a3.16,3.16,0,0,1,.66.82c.38.55.89,1.37,1.62,2.31a4.78,4.78,0,0,0,1.36,1.28c.59.36,1.26.69,2,1.06A16,16,0,0,1,452,355.2c.7.52,1.38,1.09,2.12,1.59,1.44,1,3.23,1.5,4.59.83a2.54,2.54,0,0,0,1.37-1.48,3.68,3.68,0,0,0,.11-1.82,7.19,7.19,0,0,0-1.09-2.53,4.49,4.49,0,0,1-.51-.91,3.31,3.31,0,0,1,.68.79,6.91,6.91,0,0,1,1.29,2.57,4,4,0,0,1-.07,2,3,3,0,0,1-1.57,1.77,4,4,0,0,1-2.58.29,6.74,6.74,0,0,1-2.51-1.12c-.77-.52-1.45-1.1-2.13-1.6a17.27,17.27,0,0,0-2.08-1.29c-.7-.37-1.37-.72-2-1.12a5.09,5.09,0,0,1-1.43-1.42,26.36,26.36,0,0,1-1.49-2.42A5,5,0,0,1,444.27,348.44Z" style="fill:#8c5249"></path><path d="M481.68,349.43a8.9,8.9,0,0,0,.13,4.61,1,1,0,0,0,1.5.76,1.65,1.65,0,0,0,.74-.56,1.81,1.81,0,0,0-.21-1.74,14.18,14.18,0,0,0-2.16-3.07" style="fill:#455a64"></path><path d="M656.07,333.69s-1,39.73-3.47,52.3-5.68,30.42-25.14,29.6-108.7-30.82-108.7-30.82l7.71-19.47,85.26,4.06V340.19Z" style="fill:#bc857a"></path><path d="M627.07,390.7c-.09,0-.5-1.5-1.43-3.86a42.25,42.25,0,0,0-11.27-16.07c-1.9-1.68-3.2-2.59-3.14-2.66a4.34,4.34,0,0,1,.95.56,27.84,27.84,0,0,1,2.43,1.82A37.69,37.69,0,0,1,626,386.71a27,27,0,0,1,.89,2.9A4.3,4.3,0,0,1,627.07,390.7Z" style="fill:#8c5249"></path><path d="M526.47,365.3s-12.86-5.74-16.57-6.51-12.49,2.15-16.81,2.15-11.25-2-15.26.16-3.24,2-3.24,2-28.69,0-31.92.16-5.09,2.93-3.4,5.55,6,1.7,6,1.7,8.33,0,11.26,1.85,20,3.85,22.2,6.32,8.95,2.93,11.72,2.93,13.27-.15,17.12,1.08a79.7,79.7,0,0,0,11.17,2.08Z" style="fill:#bc857a"></path><path d="M474.41,362.77s-.4.28-1,.87a5.46,5.46,0,0,0-1.6,3.09,4.52,4.52,0,0,0,.35,2.36,3.88,3.88,0,0,0,1.82,2c1.76.89,4.07.48,6.4.36a46.14,46.14,0,0,1,6.65,0,22.57,22.57,0,0,1,5.34,1.07,15,15,0,0,1,3.31,1.57,4.72,4.72,0,0,1,1.07.82,22.4,22.4,0,0,0-4.5-2,23.43,23.43,0,0,0-5.26-.94,50.19,50.19,0,0,0-6.58.05c-1.17.07-2.3.18-3.44.19a6.82,6.82,0,0,1-3.21-.65,4.32,4.32,0,0,1-2-2.21,4.81,4.81,0,0,1-.31-2.58,5.37,5.37,0,0,1,1.82-3.19,5.17,5.17,0,0,1,.82-.58A.94.94,0,0,1,474.41,362.77Z" style="fill:#8c5249"></path><path d="M526.47,365.3a1.86,1.86,0,0,1-.54-.18c-.35-.13-.86-.34-1.51-.61l-5.49-2.37a43.55,43.55,0,0,0-8.4-2.68,18.23,18.23,0,0,0-5.15-.29,47,47,0,0,0-5.51.93c-1.89.4-3.74.8-5.56,1a23.35,23.35,0,0,1-5.28,0c-3.34-.32-6.31-.81-8.81-.55a11.72,11.72,0,0,0-5.58,1.77,12.12,12.12,0,0,0-1.67,1.39,5.43,5.43,0,0,1,1.55-1.56,11.63,11.63,0,0,1,5.66-2c2.56-.31,5.58.15,8.89.45a23.11,23.11,0,0,0,5.18-.07c1.79-.21,3.62-.62,5.51-1a45.1,45.1,0,0,1,5.58-.93,18.71,18.71,0,0,1,5.28.33,42.17,42.17,0,0,1,8.45,2.81c2.32,1,4.16,1.92,5.43,2.52L526,365A2.78,2.78,0,0,1,526.47,365.3Z" style="fill:#8c5249"></path><path d="M473.13,363.21c0,.14-6.7.26-15,.26s-15-.12-15-.26,6.7-.26,15-.26S473.13,363.06,473.13,363.21Z" style="fill:#8c5249"></path></g><g id="freepik--character-1--inject-119"><path d="M268.28,103c3.64-3.51,2-10.12-1.95-13.23s-9.39-3.58-14.45-3.64a14.46,14.46,0,0,0-25.23-10.81c1.7-2,.33-5.31-2-6.48s-5.11-.8-7.67-.27-5.21,1.19-7.72.5c-2.34-.63-4.2-2.34-6.24-3.64A19.8,19.8,0,0,0,172.67,84a17,17,0,0,0-21.59,18.64,12.55,12.55,0,0,0-5.24,21.05,7.27,7.27,0,1,0,0,14.53c-1.71,12,7.8,26.82,9.42,25.56l99.61-4.24c5.46.7,12.17-23.41,14.52-28.38l4.29-9c1.26-2.66,2.55-5.42,2.64-8.36A11.08,11.08,0,0,0,268.28,103Z" style="fill:#263238"></path><polygon points="268.31 323.08 287.92 340.44 349.74 316.45 363.3 334.72 296.76 372.23 270.94 373.67 252.78 344.94 268.31 323.08" style="fill:#ffbe9d"></polygon><path d="M348.65,320.05l11.79-28.25,5.71-7.69s4.21-12.94,6.18-14.48,7.07,2.38,11.36,4.6a38.72,38.72,0,0,0,7.47,2.33l6.5,1.3a2.8,2.8,0,0,1-.65,3.85,4,4,0,0,1-4.55,3.57,92.2,92.2,0,0,0-10.94.56l1.11,9.83-3.34,14.47s16.4-.62,18.87-.87,4.32,3.66,2.65,6-4.17,2.6-6.49,3.16-9.74-.65-12.71,1S369.55,332.7,362.5,335Z" style="fill:#ffbe9d"></path><path d="M396.06,283.52a2.71,2.71,0,0,1,0-.78c0-.6.05-1.32.08-2.19l.13.15a79.29,79.29,0,0,1-14.85-2.57c-2.4-.57-4.67-1.71-6.7-1.2a8.71,8.71,0,0,0-4.33,3.36c-1,1.27-1.81,2.33-2.45,3a7.23,7.23,0,0,1-.77.72c-.18.16-.29.23-.3.22s.34-.38.92-1.07,1.34-1.77,2.31-3.09a16,16,0,0,1,1.78-2,5.85,5.85,0,0,1,6.18-1.4l3.5,1a100.39,100.39,0,0,0,14.73,2.79h.15l0,.14c-.08.86-.15,1.59-.21,2.17A3.34,3.34,0,0,1,396.06,283.52Z" style="fill:#eb996e"></path><path d="M374.67,283.7a15.66,15.66,0,0,0,3.63,1.74,14.83,14.83,0,0,0,4,.23c0,.06-.41.28-1.17.41a7.22,7.22,0,0,1-5.66-1.46C374.9,284.13,374.63,283.74,374.67,283.7Z" style="fill:#eb996e"></path><path d="M372.33,293.78c-.12-.11,1.2-1.68,2.37-3.89s1.78-4.16,1.93-4.12a10.35,10.35,0,0,1-1.47,4.37A10.54,10.54,0,0,1,372.33,293.78Z" style="fill:#eb996e"></path><path d="M259,133.74c.19-17.68-17.47-36.65-35.15-36.09l-57.66,6.61-.52,9.49-5.14,117.49h0s2.09,38.18,34.16,38.37c28.81.18,29.46-30.22,29.46-30.23l.62-16.55s22.76-2.07,29.59-31.06C257.77,177.36,258.8,153.38,259,133.74Z" style="fill:#ffbe9d"></path><path d="M251.8,156a3.78,3.78,0,0,1-3.91,3.53,3.61,3.61,0,0,1-3.63-3.68,3.78,3.78,0,0,1,3.91-3.53A3.61,3.61,0,0,1,251.8,156Z" style="fill:#263238"></path><path d="M252.81,146.89c-.5.45-3.2-1.87-7.25-2.16s-7.16,1.52-7.57,1c-.19-.23.35-1.08,1.71-1.93a10.42,10.42,0,0,1,6.1-1.4,9.91,9.91,0,0,1,5.72,2.33C252.7,145.76,253.05,146.68,252.81,146.89Z" style="fill:#263238"></path><path d="M214.18,155.05a3.78,3.78,0,0,1-3.91,3.53,3.61,3.61,0,0,1-3.62-3.68,3.77,3.77,0,0,1,3.9-3.53A3.61,3.61,0,0,1,214.18,155.05Z" style="fill:#263238"></path><path d="M213.55,145.28c-.5.46-3.2-1.86-7.25-2.15s-7.16,1.52-7.56,1c-.2-.23.33-1.08,1.7-1.93a10.27,10.27,0,0,1,6.1-1.4,10,10,0,0,1,5.73,2.33C213.44,144.16,213.8,145.08,213.55,145.28Z" style="fill:#263238"></path><path d="M226.78,177.23c0-.19,2.54-.39,6.66-.56,1,0,2-.13,2.25-.72s-.06-1.59-.47-2.64l-2.52-6.87c-3.46-9.77-5.9-17.78-5.43-17.89s3.65,7.72,7.12,17.49q1.25,3.61,2.38,6.9c.31,1,.89,2.2.25,3.48a2.58,2.58,0,0,1-1.8,1.16,8,8,0,0,1-1.78.09C229.32,177.58,226.78,177.43,226.78,177.23Z" style="fill:#263238"></path><path d="M224.79,222.83a74.79,74.79,0,0,1-38.51-13.38s8.69,21.06,38.25,20.49Z" style="fill:#eb996e"></path><path d="M213.93,175.59c.66,0,.34,4.41,3.88,7.81s8.24,3.25,8.23,3.87c0,.28-1.11.78-3.09.68a10.92,10.92,0,0,1-6.89-3,9.59,9.59,0,0,1-3-6.52C213.06,176.6,213.63,175.55,213.93,175.59Z" style="fill:#263238"></path><path d="M215.17,137.14c-.65,1.38-4.52,0-9.35-.06s-8.91,1-9.31-.43c-.17-.67.73-1.91,2.5-3.05a13.31,13.31,0,0,1,7.3-2,11.91,11.91,0,0,1,6.91,2.35C214.79,135.2,215.45,136.49,215.17,137.14Z" style="fill:#263238"></path><path d="M253.24,137c-.8,1.44-4.56.39-8.93.74-4.39.18-8,1.68-9,.36-.44-.65,0-2.06,1.51-3.49a11.33,11.33,0,0,1,7-2.91,11.52,11.52,0,0,1,7.38,2C252.94,135,253.58,136.3,253.24,137Z" style="fill:#263238"></path><path d="M201.21,166.5c-.13.11-.37.05-.54-.14s-.2-.44-.07-.55.37-.06.54.13A.42.42,0,0,1,201.21,166.5Z" style="fill:#eb996e"></path><path d="M207.65,167.27c-.17,0-.26-.42-.2-.89s.25-.82.43-.79.26.41.2.88S207.83,167.29,207.65,167.27Z" style="fill:#eb996e"></path><path d="M213.83,166.31c-.17,0-.27-.29-.22-.57s.23-.49.41-.46.26.29.21.57S214,166.34,213.83,166.31Z" style="fill:#eb996e"></path><path d="M204.82,173.25c-.15.08-.44-.12-.63-.45s-.23-.68-.08-.77.43.12.62.45S205,173.16,204.82,173.25Z" style="fill:#eb996e"></path><path d="M210.25,172c-.16-.05-.22-.32-.14-.6s.3-.48.46-.42.23.32.14.6S210.42,172,210.25,172Z" style="fill:#eb996e"></path><path d="M246.46,169.57c-.17,0-.36-.25-.57-.58s-.37-.63-.26-.77.52,0,.8.44S246.63,169.55,246.46,169.57Z" style="fill:#eb996e"></path><path d="M250.75,169.81c-.16-.08-.12-.48.08-.9s.5-.7.66-.62.11.48-.09.9S250.91,169.89,250.75,169.81Z" style="fill:#eb996e"></path><path d="M255,170.83c-.16-.07-.15-.42,0-.77s.42-.57.58-.5.15.42,0,.77S255.15,170.9,255,170.83Z" style="fill:#eb996e"></path><path d="M247.26,176.51c-.14.09-.4,0-.56-.31s-.18-.55,0-.64.4,0,.56.31S247.41,176.41,247.26,176.51Z" style="fill:#eb996e"></path><path d="M251.6,175.59a.41.41,0,0,1-.22-.51c.05-.25.23-.43.4-.39s.27.26.22.51S251.77,175.62,251.6,175.59Z" style="fill:#eb996e"></path><path d="M228.73,170.66c-.18,0-.27-.38-.21-.81s.24-.76.41-.74.27.39.21.82S228.9,170.69,228.73,170.66Z" style="fill:#eb996e"></path><path d="M239.34,168.65a.28.28,0,0,1-.36-.2.29.29,0,0,1,.26-.32.29.29,0,0,1,.36.2A.29.29,0,0,1,239.34,168.65Z" style="fill:#eb996e"></path><path d="M226.86,164.17c-.17,0-.35-.18-.4-.47s0-.55.21-.58.35.17.4.46S227,164.14,226.86,164.17Z" style="fill:#eb996e"></path><path d="M219.14,169.08c-.17,0-.26-.31-.21-.63s.24-.56.41-.53.26.31.21.63S219.31,169.11,219.14,169.08Z" style="fill:#eb996e"></path><path d="M226.88,154.15c-.17,0-.27-.31-.21-.64s.24-.55.41-.52.26.31.21.63S227.05,154.18,226.88,154.15Z" style="fill:#eb996e"></path><path d="M165.79,148.12c-.54-.26-22.07-7.45-22.2,14.78s22.21,17.79,22.25,17.15S165.79,148.12,165.79,148.12Z" style="fill:#ffbe9d"></path><path d="M161.06,171.66c-.1-.08-.39.26-1.05.56a3.86,3.86,0,0,1-2.89,0c-2.35-.87-4.3-4.61-4.38-8.62a12.79,12.79,0,0,1,1.11-5.54c.69-1.62,1.75-2.75,2.94-3a2,2,0,0,1,2.27,1.08c.3.62.15,1.06.27,1.1s.48-.37.31-1.29a2.47,2.47,0,0,0-.87-1.39,2.88,2.88,0,0,0-2.14-.58c-1.71.11-3.26,1.67-4.06,3.42a13.07,13.07,0,0,0-1.38,6.19c.11,4.48,2.38,8.69,5.59,9.63a4.13,4.13,0,0,0,3.54-.56C161,172.19,161.14,171.7,161.06,171.66Z" style="fill:#eb996e"></path><path d="M260.41,111c-3.06-6.43-9.47-10.75-16.25-12.92s-14-2.44-21.12-2.7l-60.78,2-4.48,47.92,4.8,8.09,4.38,5.12c6.16-1.65,13-9.05,14-18.39a20.56,20.56,0,0,0,15.36-9.79,27.19,27.19,0,0,0,3.43-18.19,20.33,20.33,0,0,0,10.46,12,13.12,13.12,0,0,0,6.28,1.43c6.18-.34,10.77-7.78,8.31-13.45A42.3,42.3,0,0,0,243.43,127c4.54,1.83,10,2.77,14.09,0C262.44,123.78,263,116.38,260.41,111Z" style="fill:#263238"></path><path d="M258.27,174s-15-12.9-27.07-11.84-51.9,4.38-51.9,4.38l-10.7,20.06S178.33,223,227.09,223C260.64,223,258.27,174,258.27,174Z" style="fill:#e0e0e0"></path><path d="M158.63,146.81s.14,0,.4,0a8.7,8.7,0,0,1,1.13.11,13.9,13.9,0,0,1,4,1.26,21.48,21.48,0,0,1,5.12,3.52,38.72,38.72,0,0,1,5,5.67A104.89,104.89,0,0,1,181.61,169l2,3.61a9.83,9.83,0,0,1,.75,1.34s-.11-.1-.26-.3-.38-.52-.66-.93c-.55-.82-1.29-2-2.19-3.54a129.58,129.58,0,0,0-7.38-11.53c-3.17-4.29-6.78-7.63-9.92-9.17A18.78,18.78,0,0,0,158.63,146.81Z" style="fill:#e0e0e0"></path><path d="M161.75,181a21,21,0,0,1,4,2.48,21.91,21.91,0,0,1,3.68,2.9,21.22,21.22,0,0,1-4-2.48A22.07,22.07,0,0,1,161.75,181Z" style="fill:#e0e0e0"></path><path d="M251.33,187.77a1.71,1.71,0,0,1-.48.15l-1.41.32c-1.23.28-3,.6-5.24.91s-4.9.58-7.86.74-6.25.14-9.67,0-6.68-.62-9.61-1.1-5.55-1.08-7.72-1.67-3.91-1.11-5.09-1.53l-1.36-.49c-.31-.12-.47-.19-.46-.21a2.31,2.31,0,0,1,.49.11l1.39.39c1.2.37,2.95.84,5.12,1.37s4.79,1.07,7.71,1.55,6.15.84,9.56,1.06,6.66.19,9.62.09,5.61-.35,7.83-.62,4-.53,5.25-.75l1.42-.23A2,2,0,0,1,251.33,187.77Z" style="fill:#fff"></path><path d="M250.55,197.16a1.56,1.56,0,0,1-.48.15l-1.41.32c-1.23.28-3,.6-5.24.91s-4.89.59-7.86.74-6.24.14-9.67-.05-6.67-.62-9.61-1.1-5.54-1.08-7.71-1.67-3.91-1.11-5.1-1.53l-1.36-.49a2.35,2.35,0,0,1-.46-.2,1.4,1.4,0,0,1,.49.1l1.39.39c1.2.37,2.95.84,5.13,1.37s4.78,1.07,7.7,1.56,6.15.83,9.56,1.05,6.66.19,9.62.09,5.61-.34,7.83-.62,4-.53,5.25-.75l1.43-.23A1.89,1.89,0,0,1,250.55,197.16Z" style="fill:#fff"></path><path d="M248.42,208a1.88,1.88,0,0,1-.49.15l-1.41.32c-1.22.28-3,.6-5.24.92s-4.89.58-7.86.73a94.88,94.88,0,0,1-9.66,0,95.86,95.86,0,0,1-9.61-1.1c-2.93-.51-5.55-1.08-7.72-1.67s-3.91-1.11-5.09-1.53l-1.36-.49a2.3,2.3,0,0,1-.47-.2,1.81,1.81,0,0,1,.5.1l1.39.4c1.2.36,2.95.83,5.12,1.37s4.79,1.07,7.71,1.55,6.15.84,9.56,1.05,6.66.2,9.61.1,5.62-.35,7.84-.63,4-.53,5.25-.75l1.42-.22A2.39,2.39,0,0,1,248.42,208Z" style="fill:#fff"></path><path d="M161.05,219.7c-1.52.38-13.06,17.35-18.79,40.24S138.45,366,138.07,369s0,100.62,0,100.62H286.49S274.64,336.05,266.63,312s-35.34-67.87-42.46-72.63C209.64,229.65,161.05,219.7,161.05,219.7Z" style="fill:#B8DAAA"></path><g style="opacity:0.30000000000000004"><path d="M175.23,296.59c-.69,13.4,3.59,26.71,10.21,38.38s15.51,21.88,24.71,31.66q9.3,9.89,19.09,19.29c5.47,5.26,11.15,10.46,17.91,13.89s14.85,4.93,22,2.44c1.24-.43,2.62-1.22,2.72-2.53a3.7,3.7,0,0,0-1.09-2.45c-14.44-18.43-28.92-36.9-45.41-53.51-15.16-15.28-37-29.92-50.16-47.17"></path></g><path d="M265.74,310.28c0,.15-28.5.26-63.65.26s-63.66-.11-63.66-.26,28.5-.26,63.66-.26S265.74,310.14,265.74,310.28Z" style="fill:#fff"></path><path d="M275.06,361.4c0,.15-30.67.27-68.51.27S138,361.55,138,361.4s30.67-.26,68.51-.26S275.06,361.26,275.06,361.4Z" style="fill:#fff"></path><path d="M280.18,413.3c0,.15-31.74.26-70.87.26s-70.88-.11-70.88-.26,31.73-.26,70.88-.26S280.18,413.16,280.18,413.3Z" style="fill:#fff"></path><path d="M285.67,456.79c0,.15-33,.27-73.62.27s-73.62-.12-73.62-.27,33-.26,73.62-.26S285.67,456.65,285.67,456.79Z" style="fill:#fff"></path><path d="M243.77,266.13c0,.15-22.89.26-51.12.26s-51.12-.11-51.12-.26,22.88-.26,51.12-.26S243.77,266,243.77,266.13Z" style="fill:#fff"></path><path d="M254.87,307s-30.08-62.87-71.81-66.69C131.38,235.6,115.81,304,115.81,304l-1-49s23.73-23.91,51.1-27c20.42-2.29,38.25,5.8,53.71,16.19,18,12.07,31.89,39.09,37.41,53.32,5.79,15,4.92,20.09,4.92,20.09Z" style="fill:#455a64"></path><path d="M142.86,431.65l69.39-86.71,10.47,7.22s-63.45,89.7-69.28,92.62-15.41,4-15.41,4Z" style="fill:#455a64"></path><path d="M122.94,256l21.49,168.81a29.14,29.14,0,0,1-29.19,35.84l-30.69-.88a29.14,29.14,0,0,1-27.42-22L24.48,308.06A47.49,47.49,0,0,1,55.93,250l38.63-12.16A22,22,0,0,1,122.94,256Z" style="fill:#455a64"></path><path d="M108.34,239.34l-.46.41-1.39,1.16a57.56,57.56,0,0,0-4.9,4.92,51.16,51.16,0,0,0-6.27,9A47.73,47.73,0,0,0,92.43,261a49.07,49.07,0,0,0-2.22,7.35,60.53,60.53,0,0,0-1,17.54,176.86,176.86,0,0,0,3.08,20l8.79,45.66c6.19,32.4,11.8,61.73,15.86,83,.51,2.66,1,5.19,1.44,7.58s.84,4.66,1.45,6.7a14.08,14.08,0,0,0,2.64,5.26,6.55,6.55,0,0,0,4.15,2.48,6.36,6.36,0,0,0,6.15-2.22,3.66,3.66,0,0,0,.64-1.65c0-.4.06-.61.06-.61s0,.2,0,.62a3.81,3.81,0,0,1-.61,1.7c-.83,1.36-3.2,2.76-6.27,2.36a6.17,6.17,0,0,1-2.29-.78,7.82,7.82,0,0,1-2-1.73,14.51,14.51,0,0,1-2.73-5.34c-.63-2.07-1-4.34-1.5-6.73s-1-4.91-1.47-7.57l-16-83c-3.11-16.2-6.06-31.63-8.75-45.67a176,176,0,0,1-3-20.08,60.51,60.51,0,0,1,1-17.65,48.1,48.1,0,0,1,2.27-7.39,48.77,48.77,0,0,1,2.94-6.23,51.27,51.27,0,0,1,6.37-9,54,54,0,0,1,5-4.87l1.42-1.12C108.16,239.46,108.34,239.34,108.34,239.34Z" style="fill:#263238"></path><path d="M122,248.23s-.16.3-.53.76-.93,1.12-1.66,1.89a47.65,47.65,0,0,1-13.29,9.88c-1,.47-1.74.83-2.29,1a3.44,3.44,0,0,1-.88.3,33.36,33.36,0,0,1,3-1.67,62.39,62.39,0,0,0,6.94-4.44,63.35,63.35,0,0,0,6.26-5.36C121.06,249.15,121.94,248.18,122,248.23Z" style="fill:#263238"></path><path d="M145.23,252.43a3.61,3.61,0,0,1-.37.49l-1.13,1.35c-1,1.16-2.45,2.82-4.18,4.92a178.77,178.77,0,0,0-12.86,17,75,75,0,0,0-5.57,10.28,67.83,67.83,0,0,0-3.18,9c-.71,2.63-1.21,4.78-1.55,6.27-.16.69-.3,1.26-.4,1.71a4.46,4.46,0,0,1-.17.59,2.13,2.13,0,0,1,.07-.61q.12-.67.3-1.74c.28-1.5.72-3.66,1.39-6.32a64.14,64.14,0,0,1,3.1-9.09,72.16,72.16,0,0,1,5.58-10.37,157,157,0,0,1,13-16.92c1.77-2.07,3.28-3.69,4.31-4.82l1.2-1.28C145.06,252.56,145.21,252.41,145.23,252.43Z" style="fill:#263238"></path><path d="M101.68,459.38s-.08-.18-.21-.54-.32-.92-.56-1.62c-.49-1.44-1.2-3.54-2.12-6.23-1.75-5.44-4.28-13.31-7-23.16s-5.83-21.61-8.9-34.77-6.15-27.68-9.2-43c-1.49-7.65-3-15.12-4.37-22.33s-2.78-14.17-3.88-20.85a133.51,133.51,0,0,1-1.93-19.09,72.2,72.2,0,0,1,1.46-16.66A50.28,50.28,0,0,1,75.13,249.4c.89-1.12,1.82-2,2.57-2.8s1.49-1.38,2.07-1.86l1.35-1.06c.31-.24.47-.34.47-.34l-.44.38-1.31,1.1c-.57.49-1.23,1.14-2,1.89s-1.65,1.7-2.52,2.82a50.47,50.47,0,0,0-10,21.71,72.06,72.06,0,0,0-1.39,16.57,134.46,134.46,0,0,0,2,19c1.11,6.66,2.53,13.61,3.91,20.83s2.88,14.68,4.38,22.33c3,15.28,6.11,29.81,9.16,43s6.06,24.94,8.79,34.78,5.17,17.74,6.86,23.2c.88,2.7,1.56,4.81,2,6.26l.51,1.63C101.64,459.19,101.68,459.38,101.68,459.38Z" style="fill:#263238"></path><path d="M57.49,249.5a2,2,0,0,1-.17.34l-.54,1-.89,1.58c-.36.62-.77,1.34-1.16,2.18a82,82,0,0,0-5.85,14.62,97.84,97.84,0,0,0-3.77,23c-.18,4.4-.15,9,.11,13.8s.85,9.72,1.6,14.74c1.51,10.06,3.68,19.52,5.8,28.07s4.18,16.23,5.81,22.7,2.88,11.72,3.66,15.37c.4,1.82.67,3.24.86,4.21.09.46.16.82.21,1.09a3.58,3.58,0,0,1,.06.38,1.62,1.62,0,0,1-.11-.37c-.06-.27-.15-.62-.26-1.08-.23-1-.55-2.39-1-4.19-.84-3.63-2.13-8.87-3.82-15.32s-3.76-14.12-5.92-22.67-4.33-18-5.85-28.11c-.75-5-1.29-10-1.58-14.79s-.28-9.44-.09-13.85a97.05,97.05,0,0,1,3.89-23.1,79.07,79.07,0,0,1,6-14.6c.41-.84.83-1.55,1.21-2.17l.93-1.56.59-.95A1.47,1.47,0,0,1,57.49,249.5Z" style="fill:#fff"></path><path d="M80,389.44a7.39,7.39,0,0,1-1.27.54c-.83.33-2.06.73-3.6,1.16a52.8,52.8,0,0,1-24.78.79A37.23,37.23,0,0,1,46.7,391a6.43,6.43,0,0,1-1.31-.46,7.11,7.11,0,0,1,1.36.27c.87.21,2.13.48,3.69.76a58.47,58.47,0,0,0,24.61-.78c1.54-.38,2.78-.73,3.63-1A7.23,7.23,0,0,1,80,389.44Z" style="fill:#263238"></path><path d="M127.7,418.59c.06,0,0,.59.23,1.63a12.28,12.28,0,0,0,1.61,4.14,11.49,11.49,0,0,0,4.78,4.39A16.49,16.49,0,0,0,138,430a7.39,7.39,0,0,0,4-.36,11.8,11.8,0,0,0,1.9-.9,18.73,18.73,0,0,0,1.68-1.19,28.59,28.59,0,0,0,2.89-2.65,57.74,57.74,0,0,0,4.25-5.14c1.15-1.52,2-2.8,2.62-3.68a9.39,9.39,0,0,1,1-1.32,11.43,11.43,0,0,1-.83,1.44c-.55.91-1.38,2.22-2.49,3.77a52,52,0,0,1-4.2,5.26,32.14,32.14,0,0,1-2.92,2.73c-.53.45-1.15.81-1.73,1.23a13.44,13.44,0,0,1-2,.94,7.9,7.9,0,0,1-4.31.38,16.56,16.56,0,0,1-3.78-1.36,11.65,11.65,0,0,1-4.89-4.63,11.51,11.51,0,0,1-1.49-4.3,8.56,8.56,0,0,1-.06-1.23A1.55,1.55,0,0,1,127.7,418.59Z" style="fill:#263238"></path><path d="M227,357s38.81,45.2,49.08,46.34,82.82-80.84,82.82-80.84l-11.52-14.66-65.7,42.73L262.5,327.31Z" style="fill:#ffbe9d"></path><path d="M425.7,281.48l.62-3.35c.63-3.35-1.5-4.28-4.81-3.77-2.26.35-2.74,5.31-4.21,5.93s-4,3.91-4,3.91a14.71,14.71,0,0,0-3.35,0c-1.89.21-5.45,5.45-5.45,5.45l-19.06,6.9s-11.73.43-18.64,0-19.48,11.31-19.48,11.31l11.52,14.66,6.07-3.77c5.66-2.09,31.63-2.72,33.31-2.72s20.31-15.92,20.31-15.92,10.27-13.4,10.27-16.13S425.7,281.48,425.7,281.48Z" style="fill:#ffbe9d"></path><path d="M401.45,290.77s.15-.11.46-.25.78-.34,1.38-.58,1.36-.5,2.24-.78a15.86,15.86,0,0,1,3.07-.75,6.47,6.47,0,0,1,3.8.65,4.34,4.34,0,0,1,2.27,3.75,3.42,3.42,0,0,1-.95,2.28,10.24,10.24,0,0,1-2,1.57c-1.4.92-2.89,1.81-4.45,2.65-3.13,1.69-6.22,3.07-9,4.3s-5.46,2.08-7.63,2.88-3.92,1.48-5.1,2a19.07,19.07,0,0,1-1.86.78,2,2,0,0,1,.44-.27c.3-.17.75-.41,1.33-.69,1.17-.58,2.89-1.34,5.06-2.17s4.78-1.72,7.57-3,5.86-2.64,9-4.32c1.55-.83,3-1.71,4.42-2.62a10,10,0,0,0,1.87-1.47,3,3,0,0,0,.84-2,3.9,3.9,0,0,0-2-3.36,6.19,6.19,0,0,0-3.56-.67,17.86,17.86,0,0,0-3,.66c-.88.26-1.63.5-2.25.7l-1.41.49A2,2,0,0,1,401.45,290.77Z" style="fill:#eb996e"></path><path d="M426.73,281.89a4.56,4.56,0,0,0-2.3.24,6.64,6.64,0,0,0-2.07,1.46c-.68.69-1.4,1.51-2.19,2.34-1.55,1.67-3,3.17-4,4.23a11.39,11.39,0,0,1-1.79,1.64,11.59,11.59,0,0,1,1.52-1.89c1-1.13,2.37-2.66,3.93-4.33.79-.83,1.51-1.64,2.24-2.33a6.29,6.29,0,0,1,2.27-1.46,3.43,3.43,0,0,1,1.82-.15C426.54,281.73,426.75,281.87,426.73,281.89Z" style="fill:#eb996e"></path><path d="M409.54,288.56a8.63,8.63,0,0,1,1.82-2.4,8.77,8.77,0,0,1,2.22-2.05,9.41,9.41,0,0,1-1.83,2.4A9.54,9.54,0,0,1,409.54,288.56Z" style="fill:#eb996e"></path><path d="M276.76,363.22s0-.07,0-.23,0-.41,0-.69a12.7,12.7,0,0,1,.4-2.67,28.94,28.94,0,0,1,4.4-9.13l0,0h0L326,321.33l11.3-7.37,5.37-3.49c1.74-1.17,3.53-2.21,5.09-3.43,3.17-2.42,6-5,9-7a23.36,23.36,0,0,1,4.5-2.56,20.05,20.05,0,0,1,4.61-1.28,39.24,39.24,0,0,1,8.19-.26l6.16.4c1.69.09,3,.15,3.89.16l1,0a1.35,1.35,0,0,1,.35,0l-.35,0-1,0c-.89,0-2.21,0-3.9-.07l-6.16-.31a39.61,39.61,0,0,0-8.12.34,19,19,0,0,0-4.51,1.28A22.6,22.6,0,0,0,357,300.4c-2.91,2-5.73,4.57-8.92,7-1.59,1.25-3.36,2.28-5.1,3.46l-5.37,3.51-11.29,7.37-44.58,29,0,0a29.56,29.56,0,0,0-4.5,9A15.12,15.12,0,0,0,276.76,363.22Z" style="fill:#eb996e"></path><path d="M418.57,300.12s-.06.08-.21.22l-.64.58-2.54,2.2c-2.21,1.9-5.42,4.63-9.46,7.92-1,.82-2.08,1.67-3.21,2.54-.56.44-1.14.88-1.75,1.31-.29.23-.62.43-.93.64a2.54,2.54,0,0,1-1.12.44c-3.08.38-6.32.61-9.76.9-6.87.55-14.42,1.1-22.35,1.66l-3.28.23.17-.09-26.34,28.09c-3.34,3.54-6,6.39-7.94,8.4L327,357.41l-.57.58q-.19.19-.21.18a2.08,2.08,0,0,1,.17-.22l.54-.61,2.1-2.32,7.83-8.5,26.22-28.2.07-.08h.1l3.29-.23,22.34-1.62c3.43-.28,6.72-.5,9.72-.85a2,2,0,0,0,1-.37c.3-.21.62-.39.91-.62.6-.42,1.18-.85,1.75-1.29,1.13-.85,2.2-1.7,3.21-2.51,4.07-3.25,7.32-5.94,9.57-7.79l2.6-2.12.68-.55Z" style="fill:#eb996e"></path><path d="M262.5,327.31c.11-.09,4.49,5.05,9.78,11.48s9.49,11.72,9.38,11.81-4.49-5.05-9.78-11.48S262.39,327.4,262.5,327.31Z" style="fill:#eb996e"></path><path d="M207.12,249.5a28,28,0,0,0-32.4-.36c-5,3.55-9.57,8.26-10.53,14-2.38,14.21,21,53.53,32.4,71.46,7.83,12.34,22.35,29.14,22.35,29.14l46.8-39.17S239,272.39,207.12,249.5Z" style="fill:#B8DAAA"></path><path d="M222.07,263a3,3,0,0,1-.46.37c-.37.25-.82.58-1.38,1l-5.11,3.53c-4.32,3-10.25,7.14-16.72,11.85S186.16,288.82,182,292l-4.92,3.78-1.35,1a2.36,2.36,0,0,1-.49.32s.13-.15.42-.41.77-.64,1.29-1.09c1.13-.94,2.78-2.28,4.83-3.91,4.1-3.27,9.85-7.7,16.32-12.41s12.44-8.83,16.81-11.73c2.18-1.45,4-2.61,5.2-3.4l1.44-.89A2.12,2.12,0,0,1,222.07,263Z" style="fill:#fff"></path><path d="M248.54,298a3.8,3.8,0,0,1-.46.46l-1.37,1.24c-1.2,1.06-3,2.58-5.18,4.42-4.41,3.69-10.64,8.63-17.74,13.78s-13.74,9.52-18.62,12.57c-2.43,1.53-4.42,2.73-5.81,3.54l-1.61.92a3.9,3.9,0,0,1-.57.3,2.71,2.71,0,0,1,.52-.39l1.55-1,5.73-3.68c4.82-3.12,11.41-7.54,18.51-12.68s13.34-10,17.81-13.64l5.27-4.3,1.44-1.16A4,4,0,0,1,248.54,298Z" style="fill:#fff"></path><path d="M207.12,249.5l.38.26,1.09.83,4.23,3.25c1.76,1.51,3.89,3.41,6.36,5.67s5.13,5,7.93,8.22a233.81,233.81,0,0,1,18.78,23.88A322.61,322.61,0,0,1,266,324.48l.1.17-.16.13-31.09,26L219.11,364l-.2.16-.16-.19c-5.35-6.26-10.36-12.48-15-18.62-2.3-3.08-4.49-6.13-6.51-9.21s-3.88-6.14-5.71-9.12c-7.27-11.93-13.31-22.84-17.87-32.19s-7.55-17.2-8.84-22.81a28.07,28.07,0,0,1-.86-6.54,11.32,11.32,0,0,1,.11-1.71c.05-.38.09-.57.09-.57s0,.2,0,.58a12.52,12.52,0,0,0-.07,1.7,29.54,29.54,0,0,0,.95,6.5c1.34,5.57,4.38,13.38,9,22.7s10.66,20.2,17.95,32.11c1.83,3,3.71,6,5.72,9.09s4.21,6.11,6.5,9.17c4.61,6.13,9.63,12.34,15,18.58l-.36,0c5-4.21,10.32-8.64,15.69-13.14l31.11-26-.06.3a326.85,326.85,0,0,0-20-32.85,238.76,238.76,0,0,0-18.67-23.91c-2.77-3.23-5.55-5.86-7.86-8.26s-4.56-4.18-6.3-5.72l-4.17-3.3-1.07-.86Z" style="fill:#263238"></path></g><g id="freepik--Table--inject-119"><path d="M723.28,469.66c0,.14-149.84.26-334.64.26S54,469.8,54,469.66s149.81-.26,334.67-.26S723.28,469.51,723.28,469.66Z" style="fill:#263238"></path></g></svg>