<svg xmlns="http://www.w3.org/2000/svg" viewBox="0 0 750 500"><g id="freepik--Plant--inject-28"><path d="M493.19,295.44c-7.9-12.09-6.75-29.35,2.68-40.28,2.93-3.39,7-6.34,11.49-5.95s8.25,4.31,9.64,8.68.91,9.11.1,13.62C516,277.84,514,284.3,509.65,289s-10.83,9.52-16.46,6.44" style="fill:#B8DAAA"></path><path d="M497.55,353.6a18.08,18.08,0,0,1,5-20.51c1.81-1.48,4.19-2.63,6.46-2s3.86,3,4.18,5.35a14.88,14.88,0,0,1-1.19,7c-1.16,3.15-2.73,6.31-5.42,8.33s-6.44,3.92-9.07,1.83" style="fill:#B8DAAA"></path><path d="M478.5,349.45a26.13,26.13,0,0,0-13.17-27.58c-3-1.56-6.71-2.49-9.74-1s-4.6,5.35-4.36,8.81,1.92,6.66,3.75,9.61c2.58,4.13,5.74,8.14,10.14,10.21s10.28,3.66,13.38-.08" style="fill:#B8DAAA"></path><path d="M479.87,320.48c3.78-12.2-2.63-27-13.32-34-3.31-2.18-7.51-3.69-11.22-2.28s-6,5.68-6.1,9.74,1.45,8,3.24,11.61c2.51,5.11,5.72,10.14,10.59,13.07s12.76,5.86,16.81,1.86" style="fill:#B8DAAA"></path><path d="M487.47,380.14a2.41,2.41,0,0,1-.12-.59c-.07-.44-.15-1-.26-1.7,0-.38-.11-.79-.17-1.23s-.18-.94-.28-1.45c-.2-1.05-.4-2.24-.74-3.53l-.5-2c-.2-.7-.41-1.43-.63-2.18-.41-1.51-1-3.08-1.58-4.75a83.16,83.16,0,0,0-10.81-20.15c-1.08-1.39-2.06-2.76-3.09-3.94l-1.47-1.73-1.42-1.54c-.89-1-1.76-1.83-2.52-2.57l-1.06-1-.93-.83-1.28-1.15a2.85,2.85,0,0,1-.42-.43,3.19,3.19,0,0,1,.49.35l1.34,1.08,1,.79,1.09,1c.78.73,1.68,1.54,2.59,2.53l1.45,1.52,1.49,1.72c1.06,1.18,2.05,2.54,3.15,3.94a87.6,87.6,0,0,1,6.18,9.74,86.58,86.58,0,0,1,4.7,10.53c.56,1.68,1.14,3.26,1.54,4.79.21.76.41,1.49.61,2.2s.31,1.4.46,2.05c.32,1.3.5,2.51.68,3.56.08.52.16,1,.23,1.46s.09.86.13,1.24c.07.7.12,1.27.16,1.72A2.48,2.48,0,0,1,487.47,380.14Z" style="fill:#263238"></path><path d="M487.19,382.33a.73.73,0,0,1,0-.24l.05-.71c.06-.66.15-1.56.25-2.71.06-.59.13-1.24.2-2s.07-1.49.11-2.33c.07-1.68.23-3.59.17-5.7,0-1.06,0-2.16,0-3.31s-.12-2.35-.18-3.59c-.08-2.48-.42-5.12-.72-7.89a112.84,112.84,0,0,0-10.28-34.68c-1.26-2.49-2.41-4.88-3.7-7-.63-1.08-1.19-2.14-1.8-3.11l-1.8-2.79c-1.1-1.8-2.27-3.31-3.24-4.68-.49-.68-.94-1.33-1.37-1.9l-1.23-1.53c-.71-.91-1.28-1.62-1.69-2.14l-.43-.57c-.09-.12-.14-.19-.13-.2s.06,0,.17.17l.47.53,1.77,2.08,1.26,1.51c.45.56.91,1.2,1.41,1.87,1,1.36,2.19,2.86,3.32,4.66l1.83,2.78c.62,1,1.2,2,1.83,3.1,1.31,2.13,2.48,4.52,3.76,7a110.82,110.82,0,0,1,10.33,34.82c.28,2.79.61,5.43.67,7.93.05,1.24.15,2.44.15,3.6s0,2.26,0,3.32c0,2.12-.15,4-.24,5.72-.06.83-.09,1.62-.16,2.33s-.16,1.37-.24,2c-.14,1.14-.26,2.05-.34,2.71-.05.28-.08.51-.11.7S487.2,382.34,487.19,382.33Z" style="fill:#263238"></path><path d="M507.76,263.8s0,.08-.1.22-.21.38-.34.64L506,267.07c-.29.52-.63,1.09-1,1.74s-.68,1.37-1.06,2.13l-1.21,2.44c-.42.87-.81,1.81-1.24,2.79s-.9,2-1.34,3.09l-1.31,3.4-.69,1.79c-.21.62-.42,1.25-.64,1.88-.42,1.28-.87,2.58-1.32,3.93-1.67,5.41-3.26,11.44-4.6,17.84s-2.21,12.59-2.88,18.22-1,10.73-1.12,15c-.11,2.14-.13,4.08-.13,5.78s0,3.18,0,4.38,0,2.08,0,2.76V355a1.1,1.1,0,0,1,0,.24.75.75,0,0,1,0-.24c0-.19,0-.43-.05-.72,0-.67-.08-1.59-.14-2.76s-.09-2.67-.09-4.38,0-3.65.06-5.79c.07-4.3.46-9.41,1-15.06s1.54-11.84,2.84-18.27,2.95-12.46,4.66-17.89l1.35-3.93c.21-.63.43-1.26.64-1.88s.48-1.2.71-1.79c.46-1.18.91-2.31,1.34-3.4s.94-2.11,1.37-3.09.85-1.92,1.28-2.79.86-1.67,1.26-2.43.76-1.46,1.09-2.11.72-1.2,1-1.72l1.44-2.37.38-.6C507.7,263.86,507.75,263.79,507.76,263.8Z" style="fill:#263238"></path><path d="M505.07,337.94a10.26,10.26,0,0,1-.84,1.48c-.58.92-1.37,2.28-2.3,4s-2,3.79-3,6.14-2,5-2.91,7.84-1.52,5.59-2,8.12-.81,4.82-1,6.76-.31,3.5-.36,4.59a9.23,9.23,0,0,1-.14,1.69,12.48,12.48,0,0,1-.06-1.69c0-1.1,0-2.68.19-4.63a68.18,68.18,0,0,1,.89-6.81,77.41,77.41,0,0,1,2-8.18,76.35,76.35,0,0,1,3-7.88c1.07-2.36,2.13-4.43,3.11-6.12s1.82-3,2.45-3.93A10.48,10.48,0,0,1,505.07,337.94Z" style="fill:#263238"></path><polygon points="471.95 374.7 506.65 374.7 502.46 410.14 476.28 410.14 471.95 374.7" style="fill:#B8DAAA"></polygon><g style="opacity:0.30000000000000004"><polygon points="471.95 374.7 506.65 374.7 502.46 410.14 476.28 410.14 471.95 374.7"></polygon></g><path d="M505.3,385.13c0,.14-7.2.25-16.08.25s-16.08-.11-16.08-.25,7.2-.26,16.08-.26S505.3,385,505.3,385.13Z" style="fill:#fafafa"></path><path d="M505.3,387.49c0,.14-7.2.25-16.08.25s-16.08-.11-16.08-.25,7.2-.26,16.08-.26S505.3,387.34,505.3,387.49Z" style="fill:#fafafa"></path><path d="M504.87,389.77c0,.14-6.95.26-15.52.26s-15.52-.12-15.52-.26,6.95-.26,15.52-.26S504.87,389.63,504.87,389.77Z" style="fill:#fafafa"></path></g><g id="freepik--Window--inject-28"><rect x="92.13" y="77.45" width="131.53" height="331.62" style="fill:#455a64"></rect><rect x="99.41" y="87.9" width="114.11" height="151.63" style="fill:#fff"></rect><path d="M214,240H98.91V87.4H214ZM99.91,239H213V88.4H99.91Z" style="fill:#263238"></path><path d="M190.75,111.59c.12.08-14.08,21.47-31.72,47.76s-32,47.56-32.16,47.48S141,185.37,158.6,159.06,190.64,111.51,190.75,111.59Z" style="fill:#263238"></path><path d="M161.8,142.38c.12.08-4.66,7.59-10.67,16.78s-11,16.58-11.11,16.5,4.66-7.59,10.67-16.78S161.68,142.3,161.8,142.38Z" style="fill:#263238"></path><rect x="99.41" y="248.9" width="114.11" height="151.63" style="fill:#fff"></rect><path d="M214,401H98.91V248.4H214ZM99.91,400H213V249.4H99.91Z" style="fill:#263238"></path><path d="M190.75,272.58c.12.08-14.08,21.47-31.72,47.77s-32,47.56-32.16,47.48S141,346.36,158.6,320.06,190.64,272.5,190.75,272.58Z" style="fill:#263238"></path><path d="M161.8,303.37c.12.08-4.66,7.6-10.67,16.79s-11,16.58-11.11,16.5,4.66-7.59,10.67-16.79S161.68,303.3,161.8,303.37Z" style="fill:#263238"></path><path d="M223.66,77.63a8.4,8.4,0,0,1-1.32,1.77,44.66,44.66,0,0,1-3.7,3.81,47.21,47.21,0,0,1-4.11,3.38,7.93,7.93,0,0,1-1.87,1.17c-.09-.12,2.6-2.13,5.62-4.93S223.54,77.53,223.66,77.63Z" style="fill:#263238"></path><path d="M92.26,77.35c.15-.07,1.24,2.64,3.35,5.5s4.34,4.73,4.23,4.85a5.8,5.8,0,0,1-1.54-1.13,21.9,21.9,0,0,1-5.43-7.41A5.57,5.57,0,0,1,92.26,77.35Z" style="fill:#263238"></path><path d="M99.5,400.23c.11.11-1.81,2.06-4,4.61s-3.9,4.7-4,4.61a24.29,24.29,0,0,1,3.63-5A24.69,24.69,0,0,1,99.5,400.23Z" style="fill:#263238"></path><path d="M223.51,408.08a40.74,40.74,0,0,1-5.36-3.63,40,40,0,0,1-5.05-4.05,40.74,40.74,0,0,1,5.36,3.63A39.82,39.82,0,0,1,223.51,408.08Z" style="fill:#263238"></path><path d="M223.07,69.35v350.4H528.92V69.35Zm297.65,341H231.27V78.74H520.72Z" style="fill:#263238"></path><path d="M378.74,411s-.06.05-.2.13l-.64.34c-.56.3-1.4.71-2.49,1.21a67.51,67.51,0,0,1-9.59,3.45,72,72,0,0,1-14.9,2.48,74,74,0,0,1-8.93,0c-3.1-.21-6.28-.58-9.53-1-6.49-.93-12.66-2-18.32-2.26a87.11,87.11,0,0,0-15,.45,90.13,90.13,0,0,0-10,1.72l-2.68.65-.7.17a.66.66,0,0,1-.25,0l.23-.09.69-.22c.6-.19,1.5-.44,2.66-.75a81.05,81.05,0,0,1,10-1.89,85.08,85.08,0,0,1,15.1-.56c5.7.28,11.88,1.3,18.36,2.22,3.24.46,6.42.84,9.49,1.05a73.29,73.29,0,0,0,33.3-5.59c1.11-.46,2-.85,2.53-1.12l.66-.29Z" style="fill:#455a64"></path><path d="M406.9,410.15a28.83,28.83,0,0,1-3.22.94,77.87,77.87,0,0,0-7.64,2.59,72.85,72.85,0,0,0-7.3,3.42,29.41,29.41,0,0,1-3,1.57,3.14,3.14,0,0,1,.71-.56c.48-.34,1.18-.8,2.08-1.33a52.26,52.26,0,0,1,7.29-3.58,55,55,0,0,1,7.74-2.47c1-.23,1.84-.4,2.41-.49A2.9,2.9,0,0,1,406.9,410.15Z" style="fill:#455a64"></path><path d="M484.93,411.1a2.91,2.91,0,0,1-.65.37c-.44.24-1.1.53-2,.9a35.93,35.93,0,0,1-7.67,2.07,60.34,60.34,0,0,1-11.77.6c-4.44-.16-9.29-.74-14.36-1.28a109.2,109.2,0,0,0-14.34-.84,47.45,47.45,0,0,0-11.57,1.61,31.52,31.52,0,0,0-7.28,3c-1.61,1-2.42,1.6-2.46,1.55a4.54,4.54,0,0,1,.58-.48,19.1,19.1,0,0,1,1.77-1.24,30,30,0,0,1,7.29-3.18,46.66,46.66,0,0,1,11.65-1.73,106.15,106.15,0,0,1,14.41.8c5.08.55,9.91,1.13,14.33,1.32a61.92,61.92,0,0,0,11.69-.48,39.35,39.35,0,0,0,7.66-1.9c.87-.33,1.54-.6,2-.8A5.16,5.16,0,0,1,484.93,411.1Z" style="fill:#455a64"></path><path d="M496.73,410.68s-.13.26-.44.66a13.94,13.94,0,0,1-1.46,1.6,21.6,21.6,0,0,1-5.9,4,23.34,23.34,0,0,1-6.84,2,16.53,16.53,0,0,1-2.15.15,2.77,2.77,0,0,1-.79-.06c0-.09,1.11-.15,2.88-.45a28,28,0,0,0,6.68-2.08,24.84,24.84,0,0,0,5.87-3.77C495.94,411.49,496.66,410.63,496.73,410.68Z" style="fill:#455a64"></path><path d="M513.24,419.48s-.26,0-.72,0a8.33,8.33,0,0,1-1.93-.46,3.7,3.7,0,0,1-2.18-2.05,2.47,2.47,0,0,1,.15-1.84,5.07,5.07,0,0,1,1.17-1.52,13.38,13.38,0,0,1,5.76-3,7.56,7.56,0,0,1,2.67-.29c0,.09-1,.18-2.57.64a14.72,14.72,0,0,0-5.5,3c-.9.8-1.55,1.89-1.22,2.84a3.39,3.39,0,0,0,1.87,1.85C512.21,419.29,513.27,419.38,513.24,419.48Z" style="fill:#455a64"></path><path d="M280,410.77s-.09.24-.33.63a5.48,5.48,0,0,1-.48.69,8.23,8.23,0,0,1-.71.86,16.3,16.3,0,0,1-5.16,3.82,18,18,0,0,1-6.19,1.73,8.33,8.33,0,0,1-2.66,0c0-.09,1-.09,2.62-.32a21.13,21.13,0,0,0,6-1.84,18.65,18.65,0,0,0,5.13-3.6C279.4,411.56,280,410.72,280,410.77Z" style="fill:#455a64"></path><path d="M251.37,410.46s.21-.08.58-.1a5,5,0,0,1,1.6.2,2.87,2.87,0,0,1,1.78,4.42,4.84,4.84,0,0,1-2.18,2,10,10,0,0,1-2.24.76,7.29,7.29,0,0,1-2.14.28,11.23,11.23,0,0,1,2-.63,12.14,12.14,0,0,0,2.11-.84,4.58,4.58,0,0,0,1.95-1.81,2.73,2.73,0,0,0,.18-2.5,2.79,2.79,0,0,0-1.63-1.33A18.53,18.53,0,0,0,251.37,410.46Z" style="fill:#455a64"></path><path d="M241.26,78.06c-.12.09-1.85-2-4.1-4.34s-4.17-4.25-4.07-4.36a23.68,23.68,0,0,1,4.45,4A23.54,23.54,0,0,1,241.26,78.06Z" style="fill:#455a64"></path><path d="M378.74,70.26s-.06,0-.2.13l-.64.34c-.56.29-1.4.71-2.49,1.2a67.33,67.33,0,0,1-9.59,3.46A71.51,71.51,0,0,1,342,77.84c-3.1-.2-6.28-.57-9.53-1-6.49-.92-12.66-2-18.32-2.25a87.2,87.2,0,0,0-15,.44,92.13,92.13,0,0,0-10,1.73l-2.68.65-.7.17a1.07,1.07,0,0,1-.25,0,.92.92,0,0,1,.23-.09l.69-.22c.6-.19,1.5-.44,2.66-.75a81.05,81.05,0,0,1,10-1.89,84.14,84.14,0,0,1,15.1-.56c5.7.27,11.88,1.29,18.36,2.22,3.24.46,6.42.83,9.49,1a73.23,73.23,0,0,0,8.87.06A73.71,73.71,0,0,0,365.73,75a72.5,72.5,0,0,0,9.59-3.28c1.11-.47,2-.85,2.53-1.12l.66-.29A.88.88,0,0,1,378.74,70.26Z" style="fill:#455a64"></path><path d="M406.9,69.4a30,30,0,0,1-3.22.95A75.29,75.29,0,0,0,396,72.94a72.85,72.85,0,0,0-7.3,3.42,29.41,29.41,0,0,1-3,1.57,3.31,3.31,0,0,1,.71-.57c.48-.33,1.18-.79,2.08-1.32a53.31,53.31,0,0,1,7.29-3.59A54.76,54.76,0,0,1,403.59,70c1-.24,1.84-.41,2.41-.49A3.17,3.17,0,0,1,406.9,69.4Z" style="fill:#455a64"></path><path d="M484.93,70.36a3.52,3.52,0,0,1-.65.37c-.44.24-1.1.53-2,.9a36.54,36.54,0,0,1-7.67,2.07,60.34,60.34,0,0,1-11.77.6c-4.44-.16-9.29-.74-14.36-1.29a110.86,110.86,0,0,0-14.34-.83,47.45,47.45,0,0,0-11.57,1.61,31.08,31.08,0,0,0-7.28,3c-1.61.94-2.42,1.6-2.46,1.55a4,4,0,0,1,.58-.49c.38-.31,1-.72,1.77-1.24a29.65,29.65,0,0,1,7.29-3.17,46.66,46.66,0,0,1,11.65-1.73,106.07,106.07,0,0,1,14.41.79c5.08.55,9.91,1.14,14.33,1.33a61.85,61.85,0,0,0,11.69-.49,38.74,38.74,0,0,0,7.66-1.89c.87-.34,1.54-.6,2-.81A5.78,5.78,0,0,1,484.93,70.36Z" style="fill:#455a64"></path><path d="M496.73,69.94s-.13.26-.44.66a14,14,0,0,1-1.46,1.59,21.6,21.6,0,0,1-5.9,4,23.65,23.65,0,0,1-6.84,2,18.12,18.12,0,0,1-2.15.14,2.6,2.6,0,0,1-.79,0c0-.09,1.11-.15,2.88-.46a27.5,27.5,0,0,0,6.68-2.07,24.84,24.84,0,0,0,5.87-3.78C495.94,70.74,496.66,69.88,496.73,69.94Z" style="fill:#455a64"></path><path d="M513.24,78.74a2,2,0,0,1-.72,0,7.84,7.84,0,0,1-1.93-.46,3.65,3.65,0,0,1-2.18-2,2.46,2.46,0,0,1,.15-1.84,5,5,0,0,1,1.17-1.52,13.38,13.38,0,0,1,5.76-3,7.28,7.28,0,0,1,2.67-.29c0,.09-1,.18-2.57.64a14.72,14.72,0,0,0-5.5,3c-.9.8-1.55,1.88-1.22,2.83a3.32,3.32,0,0,0,1.87,1.85C512.21,78.55,513.27,78.64,513.24,78.74Z" style="fill:#455a64"></path><path d="M280,70s-.09.25-.33.64a7.45,7.45,0,0,1-.48.69,9.41,9.41,0,0,1-.71.86A16.45,16.45,0,0,1,273.36,76a18.26,18.26,0,0,1-6.19,1.73,8.71,8.71,0,0,1-2.66,0c0-.09,1-.09,2.62-.32a21.13,21.13,0,0,0,6-1.84,18.65,18.65,0,0,0,5.13-3.6C279.4,70.81,280,70,280,70Z" style="fill:#455a64"></path><path d="M251.37,69.72s.21-.08.58-.1a4.89,4.89,0,0,1,1.6.19,3.2,3.2,0,0,1,1.94,1.47,3.13,3.13,0,0,1-.16,3,4.82,4.82,0,0,1-2.18,2,9.63,9.63,0,0,1-2.24.77,7.29,7.29,0,0,1-2.14.28,11.66,11.66,0,0,1,2-.64,11.3,11.3,0,0,0,2.11-.83A4.54,4.54,0,0,0,254.88,74a2.71,2.71,0,0,0,.18-2.49,2.85,2.85,0,0,0-1.63-1.34A19.72,19.72,0,0,0,251.37,69.72Z" style="fill:#455a64"></path><path d="M230,113.18a64.88,64.88,0,0,0-2.71-6.58,58,58,0,0,0-3.92-5.94,6.67,6.67,0,0,1,1.52,1.47,22.78,22.78,0,0,1,2.86,4.23,23.64,23.64,0,0,1,1.88,4.74A6.35,6.35,0,0,1,230,113.18Z" style="fill:#455a64"></path><path d="M223.89,157a4.19,4.19,0,0,1-.16-1.07c-.08-.7-.12-1.71-.13-3a43.63,43.63,0,0,1,1.08-9.67,42.37,42.37,0,0,1,3.23-9.18c.55-1.12,1-2,1.41-2.6a4.35,4.35,0,0,1,.62-.89c.08.05-.68,1.38-1.69,3.64a49.7,49.7,0,0,0-3.06,9.14A51.13,51.13,0,0,0,224,153C223.89,155.49,224,157,223.89,157Z" style="fill:#455a64"></path><path d="M228.32,200.41a3.3,3.3,0,0,1-.21.62c-.16.4-.37,1-.63,1.75a35.74,35.74,0,0,0-1.57,6.66,34.24,34.24,0,0,0-.33,4.71c0,.85,0,1.73.09,2.63a8.24,8.24,0,0,0,.47,2.67,1.55,1.55,0,0,0,.82.91A1,1,0,0,0,228,220a5.16,5.16,0,0,0,.81-2.77q.33-3.12.52-6.44c.25-4.42.27-8.64.13-12.47-.06-1.92-.16-3.74-.29-5.44-.07-.85-.13-1.68-.21-2.45a3.42,3.42,0,0,0-.73-2,1.26,1.26,0,0,0-1.64-.3,3.31,3.31,0,0,0-.88,1.5c-.42,1.06-.78,2-1.09,2.75l-.71,1.73a3.38,3.38,0,0,1-.28.6,3,3,0,0,1,.18-.63l.62-1.77,1-2.79a3.47,3.47,0,0,1,.95-1.65,1.36,1.36,0,0,1,1.09-.26,2,2,0,0,1,1,.56,3.79,3.79,0,0,1,.87,2.2c.1.8.16,1.61.24,2.47.15,1.7.26,3.53.34,5.45.17,3.85.16,8.08-.09,12.52-.13,2.22-.31,4.38-.53,6.46a5.54,5.54,0,0,1-.95,3,1.45,1.45,0,0,1-1.6.49,2,2,0,0,1-1.1-1.17,8.84,8.84,0,0,1-.49-2.84c-.05-.91-.08-1.8-.06-2.66a34.2,34.2,0,0,1,.39-4.76,32.91,32.91,0,0,1,1.75-6.67c.29-.77.54-1.35.72-1.73A2.83,2.83,0,0,1,228.32,200.41Z" style="fill:#455a64"></path><path d="M231.58,250.72a7.89,7.89,0,0,1-.89,2,40,40,0,0,1-2.79,4.45,39.12,39.12,0,0,1-3.35,4,7.58,7.58,0,0,1-1.61,1.46c-.12-.11,2.16-2.5,4.54-5.81S231.44,250.64,231.58,250.72Z" style="fill:#455a64"></path><path d="M225.23,279a7.15,7.15,0,0,1,0-2.2,22.2,22.2,0,0,1,1.09-5.2,21.33,21.33,0,0,1,2.31-4.78,6.92,6.92,0,0,1,1.38-1.72,43.48,43.48,0,0,0-3.2,6.67A47.36,47.36,0,0,0,225.23,279Z" style="fill:#455a64"></path><path d="M226.82,388.76a1.17,1.17,0,0,1,0-.36,7.25,7.25,0,0,1,0-1.07,3.21,3.21,0,0,1,.57-1.63,2.12,2.12,0,0,1,.91-.68,1.45,1.45,0,0,1,1.29.1,1.87,1.87,0,0,1,.71,1.25,10.88,10.88,0,0,1,.13,1.53,23,23,0,0,1-.14,3.45,22.11,22.11,0,0,1-2.5,7.91l-.14.27-.2-.24c-2.58-3.12-3.92-7.66-4-12.47s1.16-9.91,2.61-15c.9-3.22,1.82-6.35,2.37-9.45a61.24,61.24,0,0,0,1-9,64.8,64.8,0,0,0-1.31-15.26,70.58,70.58,0,0,0-2.82-10c-.41-1.16-.77-2-1-2.64l-.26-.68a1,1,0,0,1-.08-.24s.05.07.12.22.19.39.31.66c.27.59.67,1.46,1.11,2.6a64.47,64.47,0,0,1,3,10,63.46,63.46,0,0,1,1.43,15.35,61.1,61.1,0,0,1-1,9.08c-.55,3.12-1.47,6.28-2.37,9.49-1.44,5.11-2.71,10.11-2.62,14.88s1.32,9.16,3.8,12.2l-.35,0A21.92,21.92,0,0,0,230,391.3a22.43,22.43,0,0,0,.19-3.39c0-1,0-2.1-.69-2.59a1.18,1.18,0,0,0-1.08-.1,1.88,1.88,0,0,0-.83.59,3.33,3.33,0,0,0-.6,1.54C226.83,388.26,226.85,388.76,226.82,388.76Z" style="fill:#455a64"></path><path d="M230.45,325a45.76,45.76,0,0,0-2.06-8.21,41.93,41.93,0,0,0-4.07-7.41A8.47,8.47,0,0,1,226,311.3a24.13,24.13,0,0,1,2.9,5.34,24.64,24.64,0,0,1,1.49,5.88A8.72,8.72,0,0,1,230.45,325Z" style="fill:#455a64"></path><path d="M527.81,113.18a63.71,63.71,0,0,0-2.72-6.58,59,59,0,0,0-3.91-5.94,6.92,6.92,0,0,1,1.52,1.47,23.94,23.94,0,0,1,4.74,9A6.7,6.7,0,0,1,527.81,113.18Z" style="fill:#455a64"></path><path d="M521.66,157a4.57,4.57,0,0,1-.15-1.07c-.08-.7-.13-1.71-.14-3a43.72,43.72,0,0,1,1.09-9.67,42.37,42.37,0,0,1,3.23-9.18c.55-1.12,1-2,1.41-2.6a4.13,4.13,0,0,1,.61-.89c.08.05-.68,1.38-1.69,3.64a50.54,50.54,0,0,0-3,9.14,51.26,51.26,0,0,0-1.23,9.56C521.66,155.49,521.75,157,521.66,157Z" style="fill:#455a64"></path><path d="M526.09,200.41a2.74,2.74,0,0,1-.2.62c-.16.4-.38,1-.64,1.75a36.56,36.56,0,0,0-1.57,6.66,35.89,35.89,0,0,0-.33,4.71c0,.85,0,1.73.09,2.63a8.81,8.81,0,0,0,.47,2.67,1.55,1.55,0,0,0,.82.91,1,1,0,0,0,1.07-.35,5.08,5.08,0,0,0,.81-2.77c.22-2.08.4-4.23.52-6.44.26-4.42.28-8.64.14-12.47-.07-1.92-.17-3.74-.3-5.44-.06-.85-.12-1.68-.2-2.45a3.43,3.43,0,0,0-.74-2,1.26,1.26,0,0,0-1.64-.3,3.38,3.38,0,0,0-.87,1.5c-.42,1.06-.79,2-1.09,2.75s-.53,1.29-.71,1.73a4.62,4.62,0,0,1-.28.6,2.37,2.37,0,0,1,.18-.63l.62-1.77,1-2.79a3.64,3.64,0,0,1,1-1.65,1.36,1.36,0,0,1,1.09-.26,2,2,0,0,1,1,.56,3.8,3.8,0,0,1,.88,2.2c.09.8.16,1.61.24,2.47.14,1.7.26,3.53.34,5.45.16,3.85.16,8.08-.1,12.52-.12,2.22-.3,4.38-.53,6.46a5.52,5.52,0,0,1-.94,3,1.46,1.46,0,0,1-1.6.49,2,2,0,0,1-1.11-1.17,8.82,8.82,0,0,1-.48-2.84c-.06-.91-.09-1.8-.07-2.66a34.1,34.1,0,0,1,2.14-11.43c.29-.77.54-1.35.73-1.73A3.27,3.27,0,0,1,526.09,200.41Z" style="fill:#455a64"></path><path d="M529.35,250.72a7.89,7.89,0,0,1-.89,2,38.53,38.53,0,0,1-2.79,4.45,37.88,37.88,0,0,1-3.35,4,7.58,7.58,0,0,1-1.61,1.46c-.11-.11,2.17-2.5,4.54-5.81S529.21,250.64,529.35,250.72Z" style="fill:#455a64"></path><path d="M523,279a6.78,6.78,0,0,1,0-2.2,21.62,21.62,0,0,1,1.08-5.2,20.89,20.89,0,0,1,2.32-4.78,7,7,0,0,1,1.37-1.72,44,44,0,0,0-3.19,6.67A46,46,0,0,0,523,279Z" style="fill:#455a64"></path><path d="M524.59,388.76a1.77,1.77,0,0,1,0-.36,9,9,0,0,1,0-1.07,3.33,3.33,0,0,1,.58-1.63,2.09,2.09,0,0,1,.9-.68,1.45,1.45,0,0,1,1.29.1,1.85,1.85,0,0,1,.72,1.25,12.62,12.62,0,0,1,.13,1.53,21.79,21.79,0,0,1-.15,3.45,22.28,22.28,0,0,1-2.49,7.91l-.15.27-.2-.24c-2.58-3.12-3.92-7.66-4-12.47s1.17-9.91,2.62-15c.9-3.22,1.81-6.35,2.36-9.45a61.29,61.29,0,0,0,1-9,65.34,65.34,0,0,0-1.31-15.26,69,69,0,0,0-2.83-10c-.4-1.16-.77-2-1-2.64l-.26-.68c-.06-.16-.08-.24-.07-.24s0,.07.12.22l.31.66c.27.59.66,1.46,1.1,2.6a64.77,64.77,0,0,1,4.43,25.31,59.85,59.85,0,0,1-1,9.08,97.34,97.34,0,0,1-2.36,9.49c-1.45,5.11-2.72,10.11-2.62,14.88s1.32,9.16,3.8,12.2l-.35,0a22.13,22.13,0,0,0,2.53-7.76,22.43,22.43,0,0,0,.19-3.39c0-1,0-2.1-.69-2.59a1.18,1.18,0,0,0-1.08-.1,1.86,1.86,0,0,0-.84.59,3.2,3.2,0,0,0-.59,1.54C524.61,388.26,524.62,388.76,524.59,388.76Z" style="fill:#455a64"></path><path d="M528.22,325a45.18,45.18,0,0,0-2.05-8.21,42.7,42.7,0,0,0-4.07-7.41,8.78,8.78,0,0,1,1.66,1.89,23.74,23.74,0,0,1,2.89,5.34,24.17,24.17,0,0,1,1.49,5.88A8.29,8.29,0,0,1,528.22,325Z" style="fill:#455a64"></path><path d="M231.27,239.81s0-.25,0-.75,0-1.25,0-2.22c0-2,0-4.86,0-8.64,0-7.57,0-18.66-.06-32.76,0-28.22-.06-68.48-.1-116.7v-.23h.23l153.55,0,135.9,0H521v.23c0,53-.05,97.69-.07,129.13,0,15.71,0,28.12-.06,36.6,0,4.23,0,7.49,0,9.69,0,1.09,0,1.92,0,2.49s0,.84,0,.84,0-.28,0-.84,0-1.4,0-2.49c0-2.2,0-5.46,0-9.69,0-8.48,0-20.89-.07-36.6,0-31.44-.07-76.13-.12-129.13l.23.24-135.9,0L231.27,79l.23-.23c0,48.22-.08,88.48-.1,116.7,0,14.1-.05,25.19-.06,32.76,0,3.78,0,6.68,0,8.64,0,1,0,1.71,0,2.22S231.27,239.81,231.27,239.81Z" style="fill:#B8DAAA"></path><path d="M528.44,420.33a36.08,36.08,0,0,1-4-4.72,36.46,36.46,0,0,1-3.58-5,36.59,36.59,0,0,1,4,4.72A37.48,37.48,0,0,1,528.44,420.33Z" style="fill:#455a64"></path><path d="M230.51,410.36a36.18,36.18,0,0,1-3.72,5,36.4,36.4,0,0,1-4.14,4.67,75,75,0,0,1,7.86-9.67Z" style="fill:#455a64"></path><path d="M223.41,69.24a35.48,35.48,0,0,1,4,4.56,35.62,35.62,0,0,1,3.63,4.89,36.39,36.39,0,0,1-4-4.56A35.62,35.62,0,0,1,223.41,69.24Z" style="fill:#455a64"></path><path d="M528.67,69.84a33.48,33.48,0,0,1-3.77,4.59,34.08,34.08,0,0,1-4.16,4.24,34.41,34.41,0,0,1,3.77-4.59A34,34,0,0,1,528.67,69.84Z" style="fill:#455a64"></path><rect x="528.92" y="77.72" width="131.53" height="331.62" style="fill:#455a64"></rect><rect x="536.2" y="88.18" width="114.11" height="151.63" style="fill:#fff"></rect><path d="M650.8,240.31H535.69V87.68H650.8Zm-114.11-1H649.8V88.68H536.69Z" style="fill:#263238"></path><path d="M627.54,111.87c.12.08-14.09,21.46-31.72,47.76s-32.05,47.56-32.16,47.48,14.08-21.46,31.72-47.77S627.42,111.79,627.54,111.87Z" style="fill:#263238"></path><path d="M598.59,142.66c.12.08-4.66,7.59-10.68,16.78s-11,16.58-11.1,16.5,4.65-7.59,10.67-16.78S598.47,142.58,598.59,142.66Z" style="fill:#263238"></path><rect x="536.2" y="249.17" width="114.11" height="151.63" style="fill:#fff"></rect><path d="M650.8,401.3H535.69V248.67H650.8Zm-114.11-1H649.8V249.67H536.69Z" style="fill:#263238"></path><path d="M627.54,272.86c.12.08-14.09,21.47-31.72,47.76s-32.05,47.56-32.16,47.48,14.08-21.46,31.72-47.77S627.42,272.78,627.54,272.86Z" style="fill:#263238"></path><path d="M598.59,303.65c.12.08-4.66,7.59-10.68,16.78s-11,16.58-11.1,16.5,4.65-7.59,10.67-16.78S598.47,303.57,598.59,303.65Z" style="fill:#263238"></path><path d="M660.45,77.91a8.52,8.52,0,0,1-1.32,1.76,46.52,46.52,0,0,1-3.71,3.82,45.76,45.76,0,0,1-4.11,3.38A8.71,8.71,0,0,1,649.45,88c-.09-.13,2.59-2.13,5.62-4.93S660.33,77.81,660.45,77.91Z" style="fill:#263238"></path><path d="M529,77.62c.15-.06,1.24,2.64,3.36,5.5s4.33,4.73,4.23,4.86a5.74,5.74,0,0,1-1.55-1.13,21.8,21.8,0,0,1-3.1-3.42,22.22,22.22,0,0,1-2.33-4A5.82,5.82,0,0,1,529,77.62Z" style="fill:#263238"></path><path d="M536.29,400.5c.1.11-1.82,2.07-4,4.61s-3.9,4.7-4,4.61a24.71,24.71,0,0,1,3.63-5A24.18,24.18,0,0,1,536.29,400.5Z" style="fill:#263238"></path><path d="M660.3,408.36a40,40,0,0,1-5.36-3.64,40.41,40.41,0,0,1-5.06-4.05,80.78,80.78,0,0,1,10.42,7.69Z" style="fill:#263238"></path></g><g id="freepik--Table--inject-28"><path d="M609.48,466.23c0,.14-96.92.26-216.44.26s-216.47-.12-216.47-.26S273.47,466,393,466,609.48,466.08,609.48,466.23Z" style="fill:#263238"></path></g></svg>